<svg xmlns="http://www.w3.org/2000/svg" width="1200" height="819" viewBox="0 0 1200 819"><defs><style>.a,.b{fill:#ca3fe9;}.b,.c{opacity:0.5;}.c,.d{fill:#017bff;}</style></defs><g transform="translate(-360 -140)"><circle class="a" cx="6" cy="6" r="6" transform="translate(906 769)"/><circle class="a" cx="6" cy="6" r="6" transform="translate(1244 153)"/><circle class="b" cx="4.5" cy="4.5" r="4.5" transform="translate(570 808)"/><circle class="b" cx="4.5" cy="4.5" r="4.5" transform="translate(422 461)"/><circle class="c" cx="4.5" cy="4.5" r="4.5" transform="translate(1051 950)"/><circle class="c" cx="4.5" cy="4.5" r="4.5" transform="translate(1551 950)"/><circle class="c" cx="4.5" cy="4.5" r="4.5" transform="translate(360 950)"/><circle class="c" cx="4.5" cy="4.5" r="4.5" transform="translate(1107 726)"/><circle class="c" cx="4.5" cy="4.5" r="4.5" transform="translate(360 140)"/><circle class="b" cx="4.5" cy="4.5" r="4.5" transform="translate(1481 291)"/><circle class="b" cx="4.5" cy="4.5" r="4.5" transform="translate(1551 140)"/><circle class="b" cx="4.5" cy="4.5" r="4.5" transform="translate(788 332)"/><circle class="b" cx="4.5" cy="4.5" r="4.5" transform="translate(1457 547)"/><circle class="c" cx="4.5" cy="4.5" r="4.5" transform="translate(834 159)"/><circle class="c" cx="4.5" cy="4.5" r="4.5" transform="translate(1327 226)"/><circle class="c" cx="4.5" cy="4.5" r="4.5" transform="translate(1284 776)"/><circle class="c" cx="4.5" cy="4.5" r="4.5" transform="translate(749 721)"/><circle class="d" cx="6" cy="6" r="6" transform="translate(1013 269)"/><circle class="d" cx="6" cy="6" r="6" transform="translate(770 638)"/><circle class="d" cx="6" cy="6" r="6" transform="translate(1510 680)"/><circle class="a" cx="6" cy="6" r="6" transform="translate(569 300)"/></g></svg>