<svg xmlns="http://www.w3.org/2000/svg" width="32" height="32" viewBox="0 0 32 32"><defs><style>.a{fill:#2767b2;}.b{fill:#fff;}</style></defs><g transform="translate(-558.709 0.291)"><rect class="a" width="32" height="32" rx="16" transform="translate(558.709 -0.291)"/><path class="b" d="M579.515,32.52h-3.207V22.16h3.207ZM577.9,20.8a1.912,1.912,0,1,1,1.9-1.912A1.9,1.9,0,0,1,577.9,20.8ZM591.532,32.52h-3.191V27.082c0-1.491-.567-2.324-1.746-2.324-1.284,0-1.954.867-1.954,2.324V32.52h-3.076V22.16h3.076v1.4a3.613,3.613,0,0,1,3.122-1.711c2.2,0,3.769,1.341,3.769,4.116v6.56Z" transform="translate(-8.912 -8.896)"/></g></svg>