<svg xmlns="http://www.w3.org/2000/svg" width="143.388" height="43.655" viewBox="0 0 143.388 43.655"><defs><style>.a{fill:#017bff;fill-rule:evenodd;}</style></defs><g transform="translate(-689.941 -340.281)"><g transform="translate(689.941 340.281)"><path class="a" d="M927,504.292c0,.284.008.284.409.342a1.379,1.379,0,0,1,1.152.76c.125.217,1.828,4.382,3.781,9.248l3.547,8.848h.5l.893-2.462c.484-1.352,1.878-5.208,3.1-8.555s2.262-6.227,2.337-6.394a2.674,2.674,0,0,1,1.795-1.452c.334-.05.351-.067.351-.342V504h-4.591v.284c0,.275,0,.275.467.334.876.1,1.369.442,1.369.943,0,.209-5.091,14.74-5.2,14.857-.017.008-1.369-3.33-3-7.429-3.147-7.871-3.214-8.071-2.788-8.23a4.618,4.618,0,0,1,.835-.134l.643-.058V504H927Z" transform="translate(-882.298 -490.806)"/><path class="a" d="M1410.846,505.2c0,.159.092.242.4.392.334.175.392.242.417.476.033.367-.259.851-.876,1.444-.534.509-3.831,3.414-3.873,3.414s0-4.432.05-4.733c.075-.417.442-.626,1.177-.676.584-.033.618-.05.618-.234v-.2H1403v.2c0,.175.042.2.576.242.718.058,1.043.217,1.169.568.142.4.125,10.475-.017,10.759a1.279,1.279,0,0,1-1.2.5H1403v.5h5.759v-.484l-.676-.033c-.643-.025-.684-.042-.918-.3l-.242-.267v-5.075l.568.6c2.829,2.98,4.44,4.724,4.44,4.816s-.559.242-.935.242c-.284,0-.317.025-.317.209v.209h6.01v-.2c0-.175-.042-.2-.584-.242-1-.083-1.16-.217-3.656-2.93-3.581-3.89-3.814-4.148-3.814-4.248a44.791,44.791,0,0,1,4.257-3.681,4.992,4.992,0,0,1,2.479-.952c.651-.042.651-.042.651-.275V505h-5.175Z" transform="translate(-1318.568 -489.45)"/><path class="a" d="M1108.432,511.117c-1.118,2.8-2.153,5.35-2.3,5.634a2.642,2.642,0,0,1-1.987,1.519c-.108,0-.15.058-.15.209v.209h4.507v-.2c0-.175-.05-.2-.476-.25-.9-.109-1.444-.5-1.444-1.06a29.375,29.375,0,0,1,1.277-3.314,6.907,6.907,0,0,1,2.078-.083l2,.025.668,1.661a15.449,15.449,0,0,1,.709,2.062c.042.351.025.409-.15.517a3.009,3.009,0,0,1-.885.184c-.66.058-.693.067-.693.259v.2h5.509v-.2c0-.175-.05-.209-.417-.259a1.478,1.478,0,0,1-1.2-.885c-.142-.259-1.235-2.913-2.429-5.91-2.062-5.158-2.178-5.434-2.379-5.434S1110.369,506.259,1108.432,511.117Zm2.446.017.868,2.17-1.8.025c-.985.008-1.811,0-1.836-.017s.376-1.06.868-2.3a10.4,10.4,0,0,1,.977-2.153C1109.993,508.913,1110.41,509.94,1110.878,511.133Z" transform="translate(-1044.525 -490.366)"/><path class="a" d="M1267,506.209c0,.192.025.209.442.209.668,0,1.044.134,1.227.442.159.259.167.459.167,5.484a43.955,43.955,0,0,1-.109,5.425,1.279,1.279,0,0,1-1.2.5H1267v.5h10.425l.05-.275c.042-.259.459-3.664.459-3.773,0-.025-.1-.042-.225-.025-.192.025-.234.092-.359.526a4.073,4.073,0,0,1-2.07,2.688l-.634.317-1.477.025c-1.628.033-1.962-.033-2.154-.451-.142-.309-.125-10.6.017-10.884a1.286,1.286,0,0,1,1.21-.5c.492,0,.517-.008.517-.209V506H1267Z" transform="translate(-1193.92 -490.366)"/><path class="a" d="M1570.925,506.184c.025.159.109.2.568.275a2.784,2.784,0,0,1,1.4.651c.058.058.851,1.5,1.778,3.188l1.678,3.08-.033,2.095c-.025,1.82-.042,2.12-.167,2.32-.217.317-.451.417-1.11.467-.559.05-.584.058-.609.275l-.025.234h5.859l-.025-.234c-.025-.217-.042-.225-.693-.275-.818-.058-.91-.1-1.077-.451a7.822,7.822,0,0,1-.134-2.412v-2.145l1.26-2.312c.7-1.269,1.369-2.462,1.5-2.654a4.712,4.712,0,0,1,2.788-1.828c.409-.058.459-.083.459-.259V506h-4.507v.209c0,.184.033.209.284.209a.9.9,0,0,1,.509.184c.217.167.225.209.184.659a2.972,2.972,0,0,1-.326,1.052c-.442.9-2.354,4.365-2.412,4.365-.1,0-3.113-5.642-3.122-5.843,0-.259.292-.417.776-.417.317,0,.351-.017.351-.209V506H1570.9Z" transform="translate(-1472.454 -490.366)"/><path class="a" d="M1737,506.109c0,.209.025.217.484.225a1.406,1.406,0,0,1,1.219.434c.175.234.175.292.175,5.467,0,4.833-.008,5.25-.15,5.5-.167.317-.526.442-1.244.442-.484,0-.484,0-.484.25v.25h5.759v-.5h-.5a2.647,2.647,0,0,1-.8-.125c-.5-.209-.534-.384-.534-3.13V512.5h.376a1.359,1.359,0,0,1,1.135.559c.159.175,1.144,1.511,2.2,2.963l1.911,2.654h1.711c1.519,0,1.694-.017,1.653-.133a.909.909,0,0,1-.05-.234c0-.075-.167-.125-.459-.159a2.306,2.306,0,0,1-1.394-.684c-.083-.108-.793-1.085-1.578-2.187s-1.611-2.178-1.845-2.412l-.409-.417.509-.15a3.024,3.024,0,0,0,2.563-3.3,5.908,5.908,0,0,0-.134-.943,3.31,3.31,0,0,0-2.1-1.92c-.526-.184-.626-.192-4.274-.217L1737,505.9Zm6.969.442a1.842,1.842,0,0,1,.927,1.068,2.954,2.954,0,0,1,.267,1.344,3.159,3.159,0,0,1-.651,2.4c-.509.576-.876.684-2.337.684h-1.21l-.025-2.379c-.025-2.529.017-2.9.342-3.113.3-.192.459-.217,1.436-.192A2.478,2.478,0,0,1,1743.969,506.551Z" transform="translate(-1624.69 -490.274)"/><path class="a" d="M1899,506.209c0,.2.025.209.484.217.693,0,1.035.142,1.2.492.142.267.15.7.15,5.409,0,5.7.008,5.592-.534,5.818a2.648,2.648,0,0,1-.8.125h-.5v.5h5.767l-.025-.234c-.025-.217-.042-.225-.651-.275-.71-.05-.952-.167-1.1-.534s-.158-10.517,0-10.792c.184-.317.509-.467,1.135-.509.534-.042.593-.067.618-.242l.025-.184H1899Z" transform="translate(-1773.168 -490.366)"/><path class="a" d="M1976.486,506.142a1.694,1.694,0,0,1,.033.209c.008.042.225.067.492.075.676.008,1.027.15,1.2.5.142.259.15.693.15,5.459a43.339,43.339,0,0,1-.109,5.384,1.279,1.279,0,0,1-1.2.5h-.526v.5h5.3c4.374,0,5.3-.017,5.3-.109,0-.067.092-.885.209-1.82s.217-1.795.234-1.911c.017-.167-.025-.217-.2-.234-.2-.025-.225.008-.317.442a4.257,4.257,0,0,1-2.153,2.821c-.568.267-.568.267-2.128.292-1.31.025-1.6.008-1.845-.108-.484-.225-.5-.326-.542-3.072l-.033-2.479h1.244a3.763,3.763,0,0,1,1.578.159,1.909,1.909,0,0,1,.993,1.611c.042.267.083.317.25.317h.209v-4.674h-.2c-.184,0-.217.05-.267.392a2.109,2.109,0,0,1-.518,1.219c-.434.459-.618.5-1.978.509l-1.252.008-.025-2.863-.017-2.871,1.853.033c1.828.025,1.87.025,2.32.25a2.943,2.943,0,0,1,1.561,2.254c.142.618.158.651.375.651h.234V506h-5.125C1976.744,506,1976.46,506.008,1976.486,506.142Z" transform="translate(-1844.185 -490.366)"/><g transform="translate(0 0)"><path class="a" d="M391.548,364.332c.092.159,1.252,2.12,2.571,4.374s2.838,4.841,3.38,5.759c.893,1.519,6.694,11.418,9.448,16.109.985,1.678,5.2,8.864,8.881,15.133l1.185,2.028.292-.526c.734-1.327,2.4-4.44,2.387-4.482a2.028,2.028,0,0,0-.476-.275c-.618-.292-3.122-1.711-3.748-2.12a10.465,10.465,0,0,1-2.27-2.32,4.539,4.539,0,0,1-.175-4.44,16.975,16.975,0,0,1,2.921-3.981l.684-.726h-.267a8.59,8.59,0,0,1-2.254-.751,24.531,24.531,0,0,1-2.988-2.02,33.7,33.7,0,0,1-4.816-5.367c-.768-.968-1.494-1.861-1.619-1.995-.184-.2-.192-.225-.042-.15a13.787,13.787,0,0,1,1.21,1.077,20.172,20.172,0,0,0,2.688,2.37c.534.342.81.392,1.143.2a1.616,1.616,0,0,1,.6-.125,12.179,12.179,0,0,1,3.222,1.043,5.613,5.613,0,0,0,.818.351,2.628,2.628,0,0,0-.534-.342,48.026,48.026,0,0,1-7.529-5.859c-2.3-2.028-3.188-2.8-5.108-4.39a10.259,10.259,0,0,1-.9-.785,5.158,5.158,0,0,1,.568.367,51.222,51.222,0,0,0,5.559,3.531c.926.451,1.135.426,1.135-.142,0-.3.359-.492.91-.484,1.169.025,4.774,1.728,8.146,3.831.559.351,0-.075-1.419-1.085a143.1,143.1,0,0,1-12.078-9.657,8.144,8.144,0,0,0-.818-.709c0,.025.559,1.143,1.235,2.5,1.31,2.587,1.82,3.689,1.686,3.639-.042-.017-3.13-2.22-6.853-4.908s-6.811-4.9-6.861-4.916S391.456,364.173,391.548,364.332Z" transform="translate(-391.443 -364.08)"/><path class="a" d="M495,365.044c0,.067,1.661,1.277,2.963,2.162a43.928,43.928,0,0,0,8.848,4.758,10.3,10.3,0,0,0,3.38.609c2.2.1,3.122.534,3.865,1.8a13.65,13.65,0,0,1,1.06,5.117,13.465,13.465,0,0,0,.209,1.611,8.23,8.23,0,0,0,1.7,2.562,14.123,14.123,0,0,1,.926,1.143,5.745,5.745,0,0,1-1.068,1.252c-.442.4-.968.81-2.646,2.037a20.17,20.17,0,0,0-4.457,4.624,5.313,5.313,0,0,0-.317,6.21,7.06,7.06,0,0,0,1.861,1.953,27.925,27.925,0,0,0,5.743,2.571c.91.259,1.269.267.593.008a12.5,12.5,0,0,1-5.634-5.267,6.076,6.076,0,0,1,.083-4.557c.551-1.519,1.569-2.988,3.881-5.626,1.945-2.2,2.379-2.8,2.663-3.606a2.822,2.822,0,0,0,.167-1.277,1.256,1.256,0,0,0-.234.5,1.832,1.832,0,0,1-.234.551,7.632,7.632,0,0,1-1.669-1.719,3.884,3.884,0,0,1-.484-1.669c-.017-.526-.025-.517.209-.284a3.325,3.325,0,0,0,2.212.7,14.136,14.136,0,0,1,4.941,1.219,4.651,4.651,0,0,0,.618.284,4.684,4.684,0,0,0-.843-1.11,21.1,21.1,0,0,0-4.107-3.272,3.558,3.558,0,0,1-.651-.442,6.833,6.833,0,0,1,.893.309,13.114,13.114,0,0,1,5.309,4.758l.267.376v-.267a12.844,12.844,0,0,0-.643-2.721,11.328,11.328,0,0,0-2.646-4.44,6.768,6.768,0,0,0-2.412-1.686,8.266,8.266,0,0,0-3.556-.568l-1.619-.025L513.83,373a3.727,3.727,0,0,0-2.329-2.087,4.624,4.624,0,0,0-1.594-.05c-3.088.225-5.342-.484-9.665-3.03C496.895,365.854,495,364.852,495,365.044Z" transform="translate(-486.356 -364.943)"/><path class="a" d="M797.8,452.027l-.6,1.018.326.184a9.317,9.317,0,0,1,2.863,2.8,12.822,12.822,0,0,1,1.945,5.609,1.717,1.717,0,0,0,.108.626,9.256,9.256,0,0,0,.25-2.646,10.26,10.26,0,0,0-1.987-6.31A15.792,15.792,0,0,0,798.46,451,6.92,6.92,0,0,0,797.8,452.027Z" transform="translate(-763.333 -443.745)"/><path class="a" d="M707.7,591.519c-.492.609-1.527,1.744-2.287,2.529a17.728,17.728,0,0,0-1.82,2.087,6.939,6.939,0,0,0-1.035,5.384,10.289,10.289,0,0,0,.826,2.312c.117.2.175.359.125.359a7.144,7.144,0,0,1-1.653-1.686,6,6,0,0,1-.927-2.613l-.05-.651-.284.568a5.455,5.455,0,0,0-.092,4.824,12.649,12.649,0,0,0,2.6,2.746,4.117,4.117,0,0,0,.676.467c.008-.017.559-1.035,1.21-2.27l1.2-2.237.409.05c.217.033,1.01.209,1.753.392,1.786.442,3.013.526,3.6.242a1.744,1.744,0,0,0,.568-.442c.175-.242.192-.367.192-1.269a4.145,4.145,0,0,1,.1-1.177.917.917,0,0,1,.442-.275c.576-.175.659-.726.167-1.16l-.242-.209.317-.234c.467-.334.5-.593.134-1a1.182,1.182,0,0,1-.292-.459c0-.167.409-.568.943-.926.342-.242.392-.309.392-.568,0-.242-.1-.4-.6-.968-1.394-1.544-1.6-1.936-1.611-2.955a3.489,3.489,0,0,1,.067-.8c.058-.109-.133-.184-1.168-.476-.676-.192-1.494-.409-1.82-.476s-.668-.15-.768-.167C708.627,590.425,708.443,590.6,707.7,591.519Z" transform="translate(-674.233 -571.56)"/></g></g></g></svg>