<svg xmlns="http://www.w3.org/2000/svg" width="32" height="32" viewBox="0 0 32 32"><defs><style>.a{fill:#1a1a24;}.b{isolation:isolate;}.c{fill:#fff;}</style></defs><g transform="translate(-609 -287)"><circle class="a" cx="16" cy="16" r="16" transform="translate(609 287)"/><g class="b" transform="translate(282.051 -19.359)"><path class="c" d="M342.9,315.588c2.354,0,2.633.009,3.562.052a4.866,4.866,0,0,1,1.637.3,2.916,2.916,0,0,1,1.673,1.673,4.866,4.866,0,0,1,.3,1.637c.042.93.051,1.208.051,3.562s-.009,2.633-.051,3.562a4.87,4.87,0,0,1-.3,1.637,2.918,2.918,0,0,1-1.673,1.673,4.875,4.875,0,0,1-1.637.3c-.929.042-1.208.051-3.562.051s-2.633-.009-3.562-.051a4.88,4.88,0,0,1-1.637-.3,2.92,2.92,0,0,1-1.673-1.673,4.88,4.88,0,0,1-.3-1.637c-.042-.929-.052-1.208-.052-3.562s.009-2.632.052-3.562a4.876,4.876,0,0,1,.3-1.637,2.918,2.918,0,0,1,1.673-1.673,4.87,4.87,0,0,1,1.637-.3c.929-.042,1.208-.052,3.562-.052m0-1.588c-2.394,0-2.694.01-3.634.053a6.469,6.469,0,0,0-2.14.41,4.507,4.507,0,0,0-2.578,2.578,6.469,6.469,0,0,0-.41,2.14c-.043.94-.053,1.24-.053,3.634s.01,2.694.053,3.634a6.471,6.471,0,0,0,.41,2.14,4.507,4.507,0,0,0,2.578,2.578,6.472,6.472,0,0,0,2.14.41c.94.043,1.24.053,3.634.053s2.694-.01,3.634-.053a6.47,6.47,0,0,0,2.14-.41,4.507,4.507,0,0,0,2.578-2.578,6.471,6.471,0,0,0,.41-2.14c.043-.94.053-1.24.053-3.634s-.01-2.694-.053-3.634a6.469,6.469,0,0,0-.41-2.14,4.507,4.507,0,0,0-2.578-2.578,6.468,6.468,0,0,0-2.14-.41c-.94-.043-1.24-.053-3.634-.053Z"/><path class="c" d="M353.188,328.573a4.527,4.527,0,1,0,4.527,4.527A4.527,4.527,0,0,0,353.188,328.573Zm0,7.465a2.938,2.938,0,1,1,2.939-2.938A2.938,2.938,0,0,1,353.188,336.038Z" transform="translate(-10.285 -10.285)"/><circle class="c" cx="1.058" cy="1.058" r="1.058" transform="translate(346.551 317.052)"/></g></g></svg>