<svg xmlns="http://www.w3.org/2000/svg" xmlns:xlink="http://www.w3.org/1999/xlink" width="126.003" height="123.42" viewBox="0 0 126.003 123.42"><defs><style>.a{fill:url(#a);}</style><linearGradient id="a" x1="0.5" x2="0.5" y2="1" gradientUnits="objectBoundingBox"><stop offset="0" stop-color="#017bff"/><stop offset="1" stop-color="#ca3fe9"/></linearGradient></defs><path class="a" d="M85.583-40.119c13.333,0,24.083-11.771,24.083-26.306,0-14.294-10.75-25.645-24.083-25.645C72.311-92.07,61.44-80.539,61.5-66.365,61.56-51.831,72.25-40.119,85.583-40.119Zm0-7.387c-8.889,0-16.276-8.228-16.276-18.858-.06-10.27,7.327-18.318,16.276-18.318s16.276,7.928,16.276,18.258C101.859-55.854,94.532-47.506,85.583-47.506Zm-.06,14.895a55.649,55.649,0,0,0-27.507,6.847A30.409,30.409,0,0,1,63.6-20.24a48.409,48.409,0,0,1,21.921-4.985c26.426,0,41.32,17.6,41.32,27.867,0,1.5-.781,2.1-2.883,2.1H72.611a27.937,27.937,0,0,1-1.2,7.387H121.8c8.769,0,12.913-2.7,12.913-8.648C134.711-11.351,116.033-32.612,85.523-32.612ZM37.176,31.351A28.724,28.724,0,0,0,65.644,2.883,28.685,28.685,0,0,0,37.176-25.585,28.645,28.645,0,0,0,8.708,2.883,28.567,28.567,0,0,0,37.176,31.351Zm0-9.79a3.221,3.221,0,0,1-3.363-3.243V6.066H22.4a3.166,3.166,0,0,1-3.183-3.183A3.166,3.166,0,0,1,22.4-.3H33.813V-12.552a3.173,3.173,0,0,1,3.363-3.183,3.173,3.173,0,0,1,3.363,3.183V-.3H51.891a3.184,3.184,0,1,1,0,6.366H40.54V18.318A3.221,3.221,0,0,1,37.176,21.561Z" transform="translate(-8.708 92.07)"/></svg>