<svg xmlns="http://www.w3.org/2000/svg" xmlns:xlink="http://www.w3.org/1999/xlink" width="109.667" height="96.034" viewBox="0 0 109.667 96.034"><defs><style>.a{fill:url(#a);}</style><linearGradient id="a" x1="0.5" x2="0.5" y2="1" gradientUnits="objectBoundingBox"><stop offset="0" stop-color="#017bff"/><stop offset="1" stop-color="#ca3fe9"/></linearGradient></defs><path class="a" d="M14.414-43.242A4.127,4.127,0,0,0,18.5-39.158a4.14,4.14,0,0,0,4.144-4.084v-2.823c0-11.171,6.667-18.078,17.537-18.078H76.935v12.132a3.423,3.423,0,0,0,3.724,3.543,4.159,4.159,0,0,0,2.763-1.021L103.841-65.1a4.385,4.385,0,0,0,0-7.087l-20.42-15.5a4.159,4.159,0,0,0-2.763-1.021,3.423,3.423,0,0,0-3.724,3.543V-72.01H41.5c-16.937,0-27.086,9.369-27.086,25.044ZM61.56-29.369A3.375,3.375,0,0,0,57.9-32.912a4.31,4.31,0,0,0-2.823,1.021L34.654-16.4a4.385,4.385,0,0,0,0,7.087L55.074,6.306A4.31,4.31,0,0,0,57.9,7.327,3.375,3.375,0,0,0,61.56,3.784V-9.489H97.055c16.937,0,27.026-9.369,27.026-24.984V-38.2A4.14,4.14,0,0,0,120-42.341a4.1,4.1,0,0,0-4.084,4.144v2.763c0,11.231-6.727,18.078-17.6,18.078H61.56Z" transform="translate(-14.414 88.707)"/></svg>