<svg xmlns="http://www.w3.org/2000/svg" xmlns:xlink="http://www.w3.org/1999/xlink" width="124.592" height="114.847" viewBox="0 0 124.592 114.847"><defs><style>.a{fill:url(#a);}</style><linearGradient id="a" x1="0.5" x2="0.5" y2="1" gradientUnits="objectBoundingBox"><stop offset="0" stop-color="#017bff"/><stop offset="1" stop-color="#ca3fe9"/></linearGradient></defs><path class="a" d="M57.716-71.049c.721,0,1.081-.42,1.2-1.141,1.922-9.189,1.8-9.489,11.471-11.411a1.247,1.247,0,0,0,1.141-1.261,1.234,1.234,0,0,0-1.141-1.2c-9.669-1.982-9.549-2.282-11.471-11.471a1.192,1.192,0,0,0-1.2-1.141,1.247,1.247,0,0,0-1.261,1.141c-1.922,9.249-1.742,9.549-11.411,11.471a1.234,1.234,0,0,0-1.141,1.2A1.2,1.2,0,0,0,45.044-83.6c9.669,1.982,9.549,2.282,11.411,11.471A1.2,1.2,0,0,0,57.716-71.049Zm47.506,20.12a1.408,1.408,0,0,0,1.441-1.381c2.042-10.811,2.042-11.471,13.513-13.453a1.461,1.461,0,0,0,1.381-1.5,1.5,1.5,0,0,0-1.381-1.5c-11.471-1.982-11.591-2.643-13.513-13.453a1.45,1.45,0,0,0-1.441-1.381,1.505,1.505,0,0,0-1.5,1.381C101.8-71.35,101.739-70.689,90.268-68.767a1.461,1.461,0,0,0-1.381,1.5,1.461,1.461,0,0,0,1.381,1.5c11.471,1.982,11.531,2.643,13.453,13.513A1.454,1.454,0,0,0,105.223-50.93ZM26.486-34.354a1.505,1.505,0,0,0,1.5-1.381C29.909-46.605,30.029-47.266,41.5-49.248a1.505,1.505,0,0,0,1.381-1.5A1.45,1.45,0,0,0,41.5-52.191C29.969-54.233,29.909-54.833,27.987-65.7a1.505,1.505,0,0,0-1.5-1.381A1.492,1.492,0,0,0,25.044-65.7c-1.922,10.871-1.982,11.531-13.513,13.513A1.45,1.45,0,0,0,10.15-50.75a1.505,1.505,0,0,0,1.381,1.5c11.531,2.042,11.531,2.643,13.513,13.513A1.492,1.492,0,0,0,26.486-34.354ZM123.6,14.234a6.489,6.489,0,0,0,9.249,0,6.6,6.6,0,0,0,0-9.249L78.917-49.188a6.561,6.561,0,0,0-9.309,0,6.713,6.713,0,0,0,0,9.249Zm-32.672-39.1L74.112-41.741c-1.081-1.021-1.381-2.222-.36-3.3,1.021-.9,2.222-.721,3.3.42L93.872-27.807Zm-37.3,40.239a2,2,0,0,0,1.982-1.982C57.476-1.8,58.2-2.222,73.692-4.685c1.321-.24,2.042-.9,2.042-2.042a2.064,2.064,0,0,0-1.8-2.042c-15.615-2.943-16.456-2.883-18.318-18.078a2,2,0,0,0-1.982-1.982,2.08,2.08,0,0,0-2.042,1.922C49.668-11.471,49.068-10.931,33.333-8.769a2.074,2.074,0,0,0-1.862,2.042,2.118,2.118,0,0,0,1.8,2.042c15.8,3,16.336,3,18.318,18.2A2.074,2.074,0,0,0,53.632,15.375Z" transform="translate(-10.15 98.676)"/></svg>