<svg xmlns="http://www.w3.org/2000/svg" width="72.016" height="16.085" viewBox="0 0 72.016 16.085"><defs><style>.a{fill:#101010;}.b{fill:#00aff0;}</style></defs><g transform="translate(-1365 -2584)"><path class="a" d="M80.978,11.1a1.945,1.945,0,0,1,1.9-1.076,1.6,1.6,0,0,1,1.41,1.635s.014,1.5-1.918,1.565h-7.84V.2H71.7V15.849H82.261c4.7-.07,4.569-4.123,4.569-4.123a4.022,4.022,0,0,0-4.047-4.109,4.248,4.248,0,0,0-3.243,1.593Z" transform="translate(1350.186 2583.818)"/><path class="a" d="M36.2.178H41.06A5.718,5.718,0,0,1,44.91,1.24a4.849,4.849,0,0,1,1.861,3.8A5.441,5.441,0,0,1,45.248,8.8a5.2,5.2,0,0,1-2.637,1.3l4.3,5.786H43.359L39.171,9.877h-.042v6.009H36.2Zm2.933,7.5h1.89c2.425,0,2.82-1.593,2.82-2.418,0-.866-.536-2.376-2.82-2.376h-1.89Z" transform="translate(1357.459 2583.822)"/><path class="a" d="M49.389,10.91a6.327,6.327,0,0,1,6.331-6.3,6.254,6.254,0,0,1,6.289,6.261,6.167,6.167,0,0,1-6.289,6.3A6.336,6.336,0,0,1,49.389,10.91Zm9.772.014a3.471,3.471,0,1,0-6.924-.014,3.468,3.468,0,1,0,6.924.014Z" transform="translate(1354.756 2582.915)"/><path class="a" d="M66.467.178h2.848V15.872H66.467Z" transform="translate(1351.258 2583.822)"/><path class="b" d="M6.745.178h2.3l6.627,15.694H12.442L10.75,11.82H5.081L3.389,15.872H.16Zm-.677,8.9H9.707L7.9,4.273H7.859Z" transform="translate(1364.84 2583.822)"/><path class="b" d="M31.167,15.872H28.559V14.433h-.042a4.346,4.346,0,0,1-3.793,1.831A6.142,6.142,0,0,1,18.674,10a6.184,6.184,0,0,1,6.049-6.3,4.561,4.561,0,0,1,3.6,1.439V.178h2.848Zm-6.134-2.208a3.633,3.633,0,0,0,3.511-3.689,3.622,3.622,0,0,0-3.511-3.689,3.694,3.694,0,0,0,0,7.379Z" transform="translate(1361.047 2583.822)"/></g></svg>