<svg xmlns="http://www.w3.org/2000/svg" width="85.374" height="23.744" viewBox="0 0 85.374 23.744"><defs><style>.a,.b{fill:#454545;}.a,.c{fill-rule:evenodd;}.c{fill:#fda800;}</style></defs><g transform="translate(-1475 -2580)"><path class="a" d="M18.827,24.644H16.508V10.54h2.319v1.733a4.505,4.505,0,0,1,3.816-1.883,4.953,4.953,0,0,1,.822.06l.176.03v2.525l-.249-.06a4.981,4.981,0,0,0-1.247-.12,3.3,3.3,0,0,0-3.317,3.556Z" transform="translate(1473.42 2578.933)"/><path class="a" d="M47.806,24.585a6.566,6.566,0,0,0,5.357-2.346l.117-.134L51.8,20.551l-.147.149a4.7,4.7,0,0,1-3.86,1.793c-2.583,0-4.271-1.688-4.447-4.422H53.809l.015-.194c.029-.389.029-.822.029-.852a7.7,7.7,0,0,0-1.644-4.945,5.6,5.6,0,0,0-4.462-2.047c-3.963,0-6.722,3.063-6.722,7.47v.1C41.025,21.791,43.755,24.585,47.806,24.585Zm-4.3-8.606a4.3,4.3,0,0,1,4.256-3.705A3.809,3.809,0,0,1,51.5,15.979Z" transform="translate(1471.414 2578.962)"/><path class="b" d="M29.055,10.554H26.736v14.1h2.319Z" transform="translate(1472.582 2578.92)"/><path class="a" d="M37.588,24.531a4.2,4.2,0,0,1-2.6-.717,4.351,4.351,0,0,1-1.365-3.646V6.99h2.319v3.257h3.023v2.226H35.944v7.68c0,1.778.616,2.137,1.614,2.137a6.361,6.361,0,0,0,1.189-.075l.235-.045v2.181l-.147.045A4.379,4.379,0,0,1,37.588,24.531Z" transform="translate(1472.02 2579.211)"/><path class="a" d="M63.715,24.779a6.949,6.949,0,0,0,5-2.092A7.439,7.439,0,0,0,70.8,17.4a7.439,7.439,0,0,0-2.084-5.289,7.051,7.051,0,0,0-10.009,0A7.439,7.439,0,0,0,56.626,17.4a7.438,7.438,0,0,0,2.084,5.289A6.914,6.914,0,0,0,63.715,24.779Zm0-12.506a4.651,4.651,0,0,1,3.42,1.464,5.407,5.407,0,0,1,1.35,3.675,5.407,5.407,0,0,1-1.35,3.675,4.711,4.711,0,0,1-6.737.09l-.088-.09a5.407,5.407,0,0,1-1.35-3.675,5.407,5.407,0,0,1,1.35-3.675A4.54,4.54,0,0,1,63.715,12.273Z" transform="translate(1470.139 2578.963)"/><path class="a" d="M7.4,24.779a7.013,7.013,0,0,1-5.049-2.092,7.417,7.417,0,0,1-2.1-5.274,7.452,7.452,0,0,1,2.1-5.289A6.989,6.989,0,0,1,7.4,10.033a6.816,6.816,0,0,1,5.078,2.077l.117.134-1.424,1.718-.147-.164A4.827,4.827,0,0,0,7.4,12.274a4.636,4.636,0,0,0-3.449,1.464,5.348,5.348,0,0,0-1.365,3.675,5.348,5.348,0,0,0,1.365,3.675A4.635,4.635,0,0,0,7.4,22.553a4.8,4.8,0,0,0,3.625-1.524l.147-.164L12.6,22.583l-.117.135A6.884,6.884,0,0,1,7.4,24.779Z" transform="translate(1474.748 2578.962)"/><path class="c" d="M27.838,3.883a1.823,1.823,0,1,1,1.776-1.838V2.06A1.811,1.811,0,0,1,27.838,3.883Z" transform="translate(1472.641 2579.763)"/><path class="c" d="M91.133,25.768a1.823,1.823,0,1,1,1.776-1.838v.015A1.792,1.792,0,0,1,91.133,25.768Z" transform="translate(1467.465 2577.974)"/><path class="c" d="M81.51,21.391H76.784a2.244,2.244,0,0,1-2.216-2.256V4.986A3.657,3.657,0,0,0,70.943,1.3h-37.4V2.939h37.2a2.234,2.234,0,0,1,2.216,2.256V19.359a3.657,3.657,0,0,0,3.625,3.69h4.931V21.391Z" transform="translate(1472.025 2579.676)"/></g></svg>