<svg xmlns="http://www.w3.org/2000/svg" width="74.965" height="17.896" viewBox="0 0 74.965 17.896"><defs><style>.a{fill:#7c529e;}</style></defs><g transform="translate(-1119 -2583)"><path class="a" d="M27.955,32.268a4.1,4.1,0,0,0,3.364-2.542c.449-1.2-.449-1.72-1.2-2.318-.523-.449-1.121-.822-1.645-1.2-1.121-.822-2.168-.822-2.99.449a1.266,1.266,0,0,1-1.794.449A8.453,8.453,0,0,1,19.432,23a1.613,1.613,0,0,1,.523-2.243,1.505,1.505,0,0,0,.9-1.42c-.075-.9-2.243-3.962-3.14-4.261a1.458,1.458,0,0,0-1.121,0A3.067,3.067,0,0,0,14.5,19.409a22.665,22.665,0,0,0,12.56,12.635c.374.15.748.15.9.224ZM23.618,14.7c-.3.075-.972-.224-.972.449,0,.449.523.374.9.449,4.261.673,6.28,2.691,6.8,7.028.075.374-.075.972.449,1.047.6,0,.449-.6.449-.972A8.144,8.144,0,0,0,23.618,14.7Zm31.026,8.822V17.166c0-1.271.449-2.318,1.869-2.318,1.346,0,1.72.972,1.72,2.243v.822c0,1.944,0,1.944,1.794,1.42A5,5,0,0,1,66.084,21.8a7.826,7.826,0,0,1,0,8.074,5.013,5.013,0,0,1-7.251,1.869c-.449-.3-.6-.449-.973.075a1.627,1.627,0,0,1-2.168.449,1.955,1.955,0,0,1-1.047-2.019V23.521Zm8.9,2.318c0-2.019-1.121-3.514-2.617-3.589-1.57-.075-2.766,1.346-2.766,3.364,0,1.945,1.121,3.514,2.617,3.589,1.57.15,2.766-1.346,2.766-3.364Zm-22.354.075c1.2-3.14,2.168-5.757,3.14-8.448a9.985,9.985,0,0,1,.523-1.346c.449-1.047,1.2-1.645,2.392-1.2,1.271.449,1.42,1.42,1.047,2.617-1.2,3.14-2.467,6.28-3.663,9.495C44.1,28.38,43.58,29.726,43.057,31a2.012,2.012,0,0,1-1.72,1.42,1.855,1.855,0,0,1-1.869-1.5c-1.72-4.411-3.514-8.9-5.233-13.308-.449-1.2-.224-2.243,1.121-2.691s1.944.374,2.392,1.5C38.8,19.409,39.917,22.4,41.188,25.913ZM75.429,26.96H72.214c-.822,0-.9.374-.523.972.673,1.271,2.617,1.794,4.261,1.2a17.966,17.966,0,0,0,1.72-.822,1.415,1.415,0,0,1,2.094.449,1.449,1.449,0,0,1-.523,2.168,7.761,7.761,0,0,1-7.7,1.047C68.924,30.847,67.8,28.6,67.8,25.838a6.508,6.508,0,0,1,5.607-6.8,6.314,6.314,0,0,1,6.8,5.308c.374,1.869-.15,2.542-2.093,2.617H75.429Zm-1.57-2.392a4.226,4.226,0,0,0,.972,0c.6-.075,1.5.374,1.645-.3.224-.9-.523-1.57-1.271-1.944a2.38,2.38,0,0,0-2.915.374c-.449.449-.973.972-.748,1.645.224.6.9.224,1.42.3C73.261,24.642,73.56,24.567,73.859,24.567Z" transform="translate(1104.816 2568.305)"/><path class="a" d="M27.951,32.268a8.051,8.051,0,0,1-.9-.224,22.44,22.44,0,0,1-12.56-12.635,3.009,3.009,0,0,1,2.093-4.336,1.458,1.458,0,0,1,1.121,0c.9.3,3.065,3.364,3.14,4.261.075.673-.449,1.047-.9,1.42A1.6,1.6,0,0,0,19.428,23a7.909,7.909,0,0,0,4.261,4.112,1.266,1.266,0,0,0,1.794-.449c.822-1.271,1.869-1.2,2.99-.449a13.22,13.22,0,0,1,1.645,1.2c.748.6,1.645,1.046,1.2,2.318a4.1,4.1,0,0,1-3.364,2.542Zm53.455-6.654V21.128a1.813,1.813,0,0,1,1.047-1.794,1.692,1.692,0,0,1,2.168.374c.449.673.672.374,1.046,0a2.542,2.542,0,0,1,1.945-.6,1.669,1.669,0,0,1,1.5,1.42c.149.822-.15,1.5-.823,1.645-3.065.748-3.514,2.841-3.215,5.532a11.947,11.947,0,0,1-.075,2.842A1.8,1.8,0,1,1,81.4,30.4c0-1.5,0-3.14,0-4.785Zm-31.849.6V21.951c0-1.2.523-1.944,1.794-1.944,1.2,0,1.72.748,1.72,1.869v8.6c0,1.2-.6,1.945-1.794,1.945-1.2-.076-1.72-.823-1.72-2.019V26.212ZM23.615,14.7a8.144,8.144,0,0,1,7.626,8c0,.374.15.972-.449.972s-.449-.6-.449-1.047c-.523-4.336-2.542-6.355-6.8-7.028-.374-.075-.9,0-.9-.449.075-.673.673-.374.972-.449ZM53.37,16.867c-.149,1.121-.672,1.869-1.869,1.944a1.9,1.9,0,0,1-2.019-1.944A2.009,2.009,0,0,1,51.5,14.848,2.1,2.1,0,0,1,53.37,16.867Z" transform="translate(1104.82 2568.305)"/><path class="a" d="M32.2,22.649c-.075.3.15.822-.374.9-.673.075-.523-.523-.6-.9-.449-2.617-1.346-3.589-4.037-4.187-.374-.075-.972,0-.9-.6s.673-.374,1.047-.3a5.37,5.37,0,0,1,4.86,5.084Z" transform="translate(1101.764 2567.607)"/><path class="a" d="M30.378,22.941c0,.3,0,.673-.449.748-.3,0-.449-.224-.523-.523A1.835,1.835,0,0,0,27.612,21.3c-.3-.075-.673-.15-.523-.6.075-.3.374-.3.673-.3A2.744,2.744,0,0,1,30.378,22.941Z" transform="translate(1101.57 2566.866)"/></g></svg>