<svg xmlns="http://www.w3.org/2000/svg" width="93.041" height="29.021" viewBox="0 0 93.041 29.021"><defs><style>.a{fill:#006cb7;}.b{fill:#fff;}.c{fill:#ed1c24;}</style></defs><g transform="translate(-1175 -2626)"><path class="a" d="M36.27,15.293C39.541,14.6,39.079,10.86,39,10.006c-.168-1.261-1.719-3.5-3.774-3.295-2.642.244-3.019,3.9-3.019,3.9C31.784,12.324,33,15.944,36.27,15.293Zm6-6.345c1.8,0,3.229-1.993,3.229-4.474S44.027,0,42.266,0c-1.8,0-3.229,1.993-3.229,4.474S40.5,8.948,42.266,8.948Zm7.757.325c2.39.285,3.941-2.2,4.235-4.067A4.225,4.225,0,0,0,51.323.773C49.6.407,47.507,3.05,47.3,4.759,47.088,6.874,47.633,8.948,50.023,9.273Zm9.518,3.132a3.691,3.691,0,0,0-3.648-3.62c-2.851,0-3.229,2.562-3.229,4.352,0,1.708.168,4.149,3.69,4.067C59.918,17.164,59.541,13.341,59.541,12.405Zm-3.648,7.931a30.739,30.739,0,0,1-5.87-5.816c-2.935-4.433-7.128-2.644-8.512-.366a18.455,18.455,0,0,1-3.857,4.067c-.294.366-4.487,2.562-3.564,6.548s4.193,3.9,4.193,3.9a18.134,18.134,0,0,0,5.157-.366,11.1,11.1,0,0,1,5.2.163s6.5,2.115,8.26-1.952S55.893,20.337,55.893,20.337Z" transform="translate(1175 2626)"/><path class="b" d="M42.852,16.432v2.684H40.587a3.609,3.609,0,0,0-3.019,2.644,4.467,4.467,0,0,0,.335,2.847,3.652,3.652,0,0,0,2.641,1.749H44.78V16.473ZM42.81,24.77H41.09a1.769,1.769,0,0,1-1.551-1.383,2.932,2.932,0,0,1,.126-1.546,2,2,0,0,1,1.3-1.139h1.8V24.77Z" transform="translate(1175 2626)"/><path class="b" d="M45.787,19.361v5.206s.084,1.3,1.971,1.79h4.864v-7h-2.1v5.247H48.513s-.629-.081-.755-.569V19.32Z" transform="translate(1175 2626)"/><path class="c" d="M75.81,15.944v-2.2H60.883v2.237H67.3l-.587,1.342H61.26V28.349H74.216a1.182,1.182,0,0,0,1.216-1.342V17.286H69.981l.461-1.383H75.81ZM72.917,25.99s-.168.366-.377.366h-8.6V23.794h8.973Zm-.042-4.352H63.9v-2.4h8.973Z" transform="translate(1175 2626)"/><path class="c" d="M92.874,13.788H87v-1.1H84.236v1.058H77.527V28.309h2.432V15.618H92.874ZM91.28,16.8v-.854H88.932V16.8H84.068v-.813H81.846V16.8H80.337l.042,1.668h1.467v3.091h8.176a1.356,1.356,0,0,0,1.3-1.18V18.425h1.719V16.757H91.28ZM88.932,19.6s-.21.366-.461.366h-4.4V18.425h4.906V19.6Zm-8.3,4.23L84.4,25.949a5.778,5.778,0,0,1-1.593.732H80.295v1.627h3.4a16.933,16.933,0,0,0,2.893-1.139,5.821,5.821,0,0,0,2.264.976h3.9V26.519H89.813a4.537,4.537,0,0,1-1.509-.569l4.4-2.481V22.126H80.588v1.708Zm7.841-.041-2.138,1.1-1.971-1.1Z" transform="translate(1175 2626)"/><path class="c" d="M27.631,16.107H30.9V13.341H27.631Zm0,12.161H30.9V17.327H27.631Z" transform="translate(1175 2626)"/><path class="c" d="M22.348,17.327h-6.96V19.6h6.08s1.468.366,1.468,1.22v.814H17.4a3.486,3.486,0,0,0-2.851,2.725,4.122,4.122,0,0,0,.126,1.952,3.459,3.459,0,0,0,2.6,1.952H26.08V20.459A4.066,4.066,0,0,0,22.348,17.327Zm.587,8.826H18.49a1.442,1.442,0,0,1-.839-.732.94.94,0,0,1,0-.773,1.583,1.583,0,0,1,.964-.814h4.361v2.318Z" transform="translate(1175 2626)"/><path class="c" d="M13.837,24.445a3.812,3.812,0,0,0-2.348-3.579c2.1-1.058,1.8-3.7,1.8-3.7-.21-4.067-5.367-3.9-5.367-3.9H0V28.431H8.973C14.214,28.39,13.837,24.445,13.837,24.445Zm-5.073,1.18H3.4V22.33H8.721l.168.041a1.938,1.938,0,0,1,1.384,1.057,1.938,1.938,0,0,1-.252,1.464C10.063,24.892,9.728,25.461,8.763,25.624ZM9.9,18.547a1.8,1.8,0,0,1-1.3.773H3.4V16.188H8.554A1.663,1.663,0,0,1,10.063,17,2.42,2.42,0,0,1,9.9,18.547Z" transform="translate(1175 2626)"/></g></svg>