<svg xmlns="http://www.w3.org/2000/svg" width="104.461" height="25.922" viewBox="0 0 104.461 25.922"><g transform="translate(-360 -2627)"><path d="M13.634.09c-1-.132-7.73-.683-11.273,3.992C.645,6.257,1.868,8.887,5.767,8.9,2.112,10.232-.64,12.679.13,15.59,1.11,19.53,5.537,19.345,9.055,19c6.171-.67,10.427-6.5,11.39-7.28,1.483.78,2.217,2.126,1.644,2.936-1.69.108-6.032.475-5.871,2.7.206,2.3,7.056,2.055,10.8-.47a9.466,9.466,0,0,1,2.231,1.174c.566.433,1.177.066,1.292-1.761a5.186,5.186,0,0,0-2.936-1.057c.252-1.275.681-2.742-2.7-5.284-.594-.272-.533-.639-.117-.939.441-.311-.048-1.045-1.174-1.409-1.2-.369-3.706-.186-4.462.7a1.647,1.647,0,0,0,.235,2.114c-.64,1.032-3.7,5.5-8.22,5.871-1.656.176-3.513-.066-3.405-2.466.16-2.006,3.217-3.78,4.345-4.227a.822.822,0,0,0-.352-1.527c-.836-.289-2.854-.411-2.936-2-.163-1.6,1.855-2.757,5.049-3.405C14.895,2.587,14.895.447,13.634.09Z" transform="translate(360 2627)"/><path d="M40.743,18.339c-1.088-.181-3.779-.181-3.758.7C36.964,19.87,39.9,19.687,40.743,18.339Zm17.849-5.754c-.956-.176-4.075-.543-4.462,2.466-.469,2.985,1.977,3.229,2.936,3.053,1-.068,3.017-1.108,3.053-4.7-.1-1.854.637-2.527,2.231-2.583s2.32.3,2.349,2c-.029,1.607.032,14.023,0,14.561a48.966,48.966,0,0,0-5.4.352c.113-2.97.48-8.9.47-9.864A5.7,5.7,0,0,1,54.6,20.687c-2.9-.022-5.526-1.368-5.284-5.167.125-3.785,3.978-6.414,9.864-5.519,1.087.145,1.209,2.714-.587,2.583Zm63.645,5.754a10.424,10.424,0,0,0-3.405.352,12.258,12.258,0,0,1-4.11,0,1.706,1.706,0,0,1-1.292-2.349c.35-.815,1.574-1.243,2.349-1.527a.725.725,0,0,0-.117-1.409c-.78-.142-1.881-.448-1.879-1.174,0-.619.977-1.536,3.992-1.292,1.2.122.9-1.9-.352-2.231a20.113,20.113,0,0,0-7.985,1.761c-1.406.714-1.651,2.733,2.114,3.405-2.358.183-3.948,2.2-3.875,3.17a3.659,3.659,0,0,0,.117,1.174,3.508,3.508,0,0,1-2.231.47,3.265,3.265,0,0,1-2.583-3.992c.328-2.248.955-1.984,1.292-2.114a1.16,1.16,0,0,0,1.292-1.174c.023-.9.237-1.112-.47-1.057-.639-.055-4.829.557-7.985-.117a2.17,2.17,0,0,0-3.17-1.409c-1.563.89-1.135,2.848.7,3.288a.79.79,0,0,0,.47.117c-.6,2.355-1.893,6.217-3.992,6.576-1.13.267-1.864-.528-1.761-2.466.142-1.854.47-5.4.47-5.4.162-1.529-5.4-1.468-5.284.47V17.4a.857.857,0,0,0,0,.47c-1.381,1.11-4.489,1.361-4.227-1.174l.7-5.4c.162-1.575-4.914-2.126-5.049.117v4.345a2.046,2.046,0,0,0,0,.939A2.725,2.725,0,0,1,73.74,18.1c-1.365.115-2.16-.068-2-1.879.081-1.737.47-5.049.47-5.049.162-1.642-4.914-1.642-5.049-.235-.048,1.162-.354,5.443-.47,6.811-.007,1.323,2.073,2.975,5.049,2.818,2.547-.073,3.472-.8,4.58-2.231.473,1.258,1.648,2.371,4.227,2.231a5.823,5.823,0,0,0,4.58-1.527A3.958,3.958,0,0,0,88.3,20.687c2.789.161,4.869-.083,6.341-2.936a17.966,17.966,0,0,0,2-5.167,19.988,19.988,0,0,0,3.758.47c-1.416,1.005-2.028,1.862-1.879,3.64.035,1.1.769,3.93,5.519,3.992,2.62,0,3.842-.569,4.7-1.174,1.118.795,3.466,1.383,8.337.939a40.611,40.611,0,0,1,5.519-.117c1.038.086,1.1-1.994-.352-2ZM87.244,8.24a2.565,2.565,0,0,0,2.818-2.349,2.658,2.658,0,0,0-2.818-2.349,2.609,2.609,0,0,0-2.7,2.349A2.515,2.515,0,0,0,87.244,8.24Z" transform="translate(341.111 2625.19)"/></g></svg>