<svg xmlns="http://www.w3.org/2000/svg" xmlns:xlink="http://www.w3.org/1999/xlink" width="78.549" height="18.641" viewBox="0 0 78.549 18.641"><defs><style>.a,.b{fill-rule:evenodd;}.a{fill:url(#a);}.b{fill:#424242;}</style><linearGradient id="a" x1="1" x2="0" y2="1" gradientUnits="objectBoundingBox"><stop offset="0" stop-color="#ff7854"/><stop offset="1" stop-color="#fd267d"/></linearGradient></defs><g transform="translate(-868.999 -2582)"><path class="a" d="M4.96,7.474C8.519,6.247,9.125,3.052,8.671.114a.145.145,0,0,1,.182-.151c3.407,1.666,7.239,5.3,7.239,10.752a7.817,7.817,0,0,1-7.95,7.875A7.572,7.572,0,0,1,3.87,4.551a.134.134,0,0,1,.212.106A6.085,6.085,0,0,0,4.9,7.474H4.96Z" transform="translate(868.775 2582.045)"/><path class="b" d="M131.063,16.159l.257-.3.8,2.544-.106.106a3.845,3.845,0,0,1-2.68.848h-.045a3.419,3.419,0,0,1-2.468-.863,3.465,3.465,0,0,1-.878-2.529V9.026H123.9v-2.8h2.044V2.848h3.15V6.225h2.5v2.8h-2.514v6.254c0,.288.076,1.212.954,1.212a1.48,1.48,0,0,0,1.03-.348Zm1.666,2.908V6.24h3.15V19.067h-3.15ZM134.289,1A1.893,1.893,0,1,1,132.4,2.908,1.927,1.927,0,0,1,134.289,1Zm10.055,4.922c2.726,0,4.225,1.484,4.225,4.195v8.935h-3.15V10.874a1.941,1.941,0,0,0-2.241-2.12,3.907,3.907,0,0,0-2.953,1.514v8.783h-3.15V6.255h3.15V7.618a5.992,5.992,0,0,1,4.119-1.666Zm14.7,1.651V1.545h3.15V19.082h-3.15V17.749a5.194,5.194,0,0,1-3.741,1.62c-3.438,0-5.739-2.7-5.739-6.709,0-4.028,2.3-6.724,5.739-6.724a5.149,5.149,0,0,1,3.741,1.636Zm0,2.711a3.877,3.877,0,0,0-2.968-1.514c-1.954,0-3.256,1.56-3.256,3.892,0,2.317,1.3,3.877,3.256,3.877a3.758,3.758,0,0,0,2.968-1.484v-4.77Zm10.51-4.346c3.725,0,6.315,2.877,6.315,6.966v.863h-9.525a3.519,3.519,0,0,0,3.68,2.953,5.022,5.022,0,0,0,3.347-1.3l.212-.182,1.5,2.15-.151.136a7.36,7.36,0,0,1-5.164,1.848,6.436,6.436,0,0,1-6.709-6.724,6.482,6.482,0,0,1,6.512-6.709Zm-3.226,5.452H172.8a3.089,3.089,0,0,0-3.241-2.8,3.152,3.152,0,0,0-3.226,2.817Zm17.158-5.452h.227v3.18l-.273-.045a3.8,3.8,0,0,0-3.756,1.393v8.587h-3.15V6.24H179.7V7.663a5.341,5.341,0,0,1,3.786-1.726Z" transform="translate(763.83 2581.158)"/></g></svg>