<svg xmlns="http://www.w3.org/2000/svg" width="78.747" height="31.599" viewBox="0 0 78.747 31.599"><defs><style>.a{fill-rule:evenodd;}</style></defs><g transform="translate(-512 -2624)"><path class="a" d="M3.027,31.724H.627v.466H13.918V23.806h-.394s0,4.837-1.612,6.413c-1.361,1.361-2.794,1.469-5.123,1.469V16.247a3.613,3.613,0,0,1,2.4.681c1.218,1.218,1.361,2.794,1.361,4.98h.43V10.085h-.43c0,2.185-.107,3.762-1.361,4.98a3.613,3.613,0,0,1-2.4.681V1.092c2.329,0,3.439.143,4.8,1.469C13.166,4.138,13.2,8.974,13.2,8.974H13.6V.627H.627v.466h2.4Z" transform="translate(511.373 2623.373)"/><path class="a" d="M32.95,1.092V31.724c2.329,0,3.762-.143,5.123-1.469,1.576-1.576,1.612-6.413,1.612-6.413h.394v8.383H26.788V31.76h2.4V1.057h-2.4V.627h8.348v.466Z" transform="translate(507.424 2623.373)"/><path class="a" d="M58.1,1.092V31.724c2.329,0,3.762-.143,5.123-1.469,1.576-1.576,1.612-6.413,1.612-6.413h.394v8.383H51.937V31.76h2.4V1.057h-2.4V.627h8.348v.466Z" transform="translate(503.627 2623.373)"/><path class="a" d="M80.119,31.724h-2.4v.466H91.01V23.806h-.394s0,4.837-1.612,6.413c-1.361,1.361-2.794,1.469-5.123,1.469V16.247a3.613,3.613,0,0,1,2.4.681c1.218,1.218,1.361,2.794,1.361,4.98h.43V10.085h-.43c0,2.185-.107,3.762-1.361,4.98a3.613,3.613,0,0,1-2.4.681V1.092c2.329,0,3.439.143,4.8,1.469,1.576,1.576,1.612,6.413,1.612,6.413h.394V.627H77.719v.466h2.4V31.724Z" transform="translate(499.736 2623.373)"/></g></svg>