<svg xmlns="http://www.w3.org/2000/svg" width="80.041" height="27.471" viewBox="0 0 80.041 27.471"><defs><style>.a{fill:#fbcf01;}.b{fill:#347e3b;}</style></defs><g transform="translate(-1314.998 -2626.002)"><path class="a" d="M25.482,6.911a12.184,12.184,0,0,1,1.84,4.77,13.516,13.516,0,0,1-1.929,9.745,10.2,10.2,0,0,1-.741.927c-.179.018-.268.169-.393.276a11.82,11.82,0,0,1-7.181,2.907,9.424,9.424,0,0,1-6.4-2.193A43.609,43.609,0,0,1,7.252,20.1a3.479,3.479,0,0,0-1.947-1c-1.9-.33-3.126.553-3.153,2.282A10.812,10.812,0,0,1,.473,17.637,13.636,13.636,0,0,1,2.027,6.893a8.337,8.337,0,0,0,.661-.927c.232.036.339-.152.482-.276A11.819,11.819,0,0,1,10.592,2.6a9.3,9.3,0,0,1,6.172,2.051A34.594,34.594,0,0,1,20.3,7.972a3.655,3.655,0,0,0,2.483,1.159C24.249,9.184,25.6,8.685,25.482,6.911Zm-7.958,9.121c.241,0,.473-.018.714,0,1.626.134,2.367-.544,2.269-2.256a1.633,1.633,0,0,0-1.76-1.748c-.849-.009-1.7-.018-2.546.009-.384.018-.473-.125-.464-.481.027-.892.018-1.783,0-2.675A1.521,1.521,0,0,0,14.415,7.33a5.468,5.468,0,0,0-.938-.036,1.575,1.575,0,0,0-1.706,1.685q-.013,1.337,0,2.675c.009.294-.089.383-.384.374-.866-.018-1.724-.018-2.59,0a1.579,1.579,0,0,0-1.67,1.685v.669a1.551,1.551,0,0,0,1.661,1.641c.849.009,1.7.018,2.546-.009.366-.009.447.116.438.455-.027.642.027,1.284-.018,1.917-.125,1.774.652,2.381,2.331,2.282a1.588,1.588,0,0,0,1.644-1.658c.009-.874.009-1.756,0-2.63-.009-.267.071-.366.348-.357C16.568,16.05,17.041,16.032,17.524,16.032Z" transform="translate(1315 2625.669)"/><path class="b" d="M38.8,13.428c-1.849,0-3.689-.009-5.538.009-.3,0-.42-.071-.4-.392a11.38,11.38,0,0,0,0-1.56c-.027-.437.08-.571.545-.571,3.617.027,7.235,0,10.852.027.456,0,.616-.107.563-.562-.036-.294.009-.6-.009-.892a1.061,1.061,0,0,0-1.045-1.061c-.2-.018-.384-.009-.581-.009-3.5,0-6.994-.009-10.495.009-.375,0-.482-.107-.465-.473.027-.544.027-1.1,0-1.649-.009-.294.08-.374.366-.374,1.894.009,3.778.009,5.672.009h4.913a4.5,4.5,0,0,1,3.028,1.123,3.194,3.194,0,0,1,1.134,2.514c-.009,1.649-.009,3.3-.009,4.948a3.655,3.655,0,0,1-3.2,3.825,5.738,5.738,0,0,1-1.108.089c-3.457,0-6.9-.009-10.361.009-.357,0-.456-.1-.438-.446.027-.562.027-1.132,0-1.694-.018-.33.1-.383.4-.383q5.386.013,10.763.009c1.09,0,1.429-.348,1.42-1.453-.009-1.07-.009-1.07-1.1-1.07C42.078,13.428,40.435,13.428,38.8,13.428Z" transform="translate(1315 2625.669)"/><path class="b" d="M57.986,8.418c-1.492,0-2.974.036-4.466-.009a2.389,2.389,0,0,0-2.34,2.14c-.045.321.063.4.375.4,2.519-.009,5.029-.009,7.548-.009a6.29,6.29,0,0,1,2.653.517,2.913,2.913,0,0,1,1.938,3c-.018.25-.009.508-.009.758a2.764,2.764,0,0,1-1.9,2.773,5.919,5.919,0,0,1-2.224.437c-1.831.009-3.662.018-5.493,0a6.736,6.736,0,0,1-3.412-.9A3.881,3.881,0,0,1,48.6,13.963c.009-1.043.027-2.078,0-3.121-.08-2.7,1.545-4.36,4.171-4.806a9.112,9.112,0,0,1,1.554-.107c2.769,0,5.538.009,8.307-.009.348,0,.465.089.447.446a16.029,16.029,0,0,0,0,1.6c.018.339-.071.455-.438.455C61.076,8.4,59.531,8.418,57.986,8.418Zm-2.358,5.011c-1.384,0-2.769,0-4.153.009-.134,0-.331-.107-.384.169a1.866,1.866,0,0,0,1.152,2.131,3.711,3.711,0,0,0,1.358.223h5.9a2.4,2.4,0,0,0,.75-.089,1.2,1.2,0,0,0,.929-1.248c0-.6-.3-.936-.956-1.115a3.34,3.34,0,0,0-.84-.071C58.129,13.428,56.878,13.428,55.628,13.428Z" transform="translate(1315 2625.669)"/><path class="b" d="M72.491,5.948a14.826,14.826,0,0,1,3.555.178A6.166,6.166,0,0,1,78.3,7.161,4.136,4.136,0,0,1,80.03,10.6c0,1.007-.009,2.024.009,3.031a4.162,4.162,0,0,1-1.92,3.656,5.9,5.9,0,0,1-3.251,1.1,37.716,37.716,0,0,1-5.216-.053,5.841,5.841,0,0,1-2.912-1.15,4.17,4.17,0,0,1-1.8-3.549c.018-1.007.009-2.024,0-3.031a4.132,4.132,0,0,1,1.992-3.664A5.946,5.946,0,0,1,70,5.948C70.821,5.912,71.66,5.948,72.491,5.948Zm-.027,2.443c-.375,0-.741-.009-1.117,0a5.867,5.867,0,0,0-2.724.562A2.042,2.042,0,0,0,67.445,10.9c.009.829,0,1.667,0,2.5a2.155,2.155,0,0,0,1.429,2.149,4.617,4.617,0,0,0,1.206.312,33.532,33.532,0,0,0,4.234.054,4.572,4.572,0,0,0,1.608-.321A2.2,2.2,0,0,0,77.466,13.6a25.627,25.627,0,0,0,.018-2.987,1.817,1.817,0,0,0-.813-1.427,3.791,3.791,0,0,0-1.251-.571A11.661,11.661,0,0,0,72.464,8.391Z" transform="translate(1315 2625.669)"/><path class="b" d="M2.152,21.372c.027-1.721,1.25-2.612,3.153-2.282a3.6,3.6,0,0,1,1.947,1,39.319,39.319,0,0,0,3.43,3.246,9.366,9.366,0,0,0,6.4,2.193,11.842,11.842,0,0,0,7.181-2.907c.125-.107.214-.259.393-.276.036.232-.161.339-.277.481A13.764,13.764,0,0,1,2.26,21.569C2.251,21.5,2.268,21.4,2.152,21.372Z" transform="translate(1315 2625.669)"/><path class="b" d="M25.483,6.911c.116,1.774-1.224,2.274-2.688,2.22a3.655,3.655,0,0,1-2.483-1.159,34.583,34.583,0,0,0-3.537-3.326A9.3,9.3,0,0,0,10.6,2.6,11.868,11.868,0,0,0,3.18,5.689c-.143.125-.25.312-.482.276A11.822,11.822,0,0,1,5.681,2.952a13.784,13.784,0,0,1,19.534,3.5C25.313,6.59,25.393,6.759,25.483,6.911Z" transform="translate(1315 2625.669)"/><path class="b" d="M69.936,22.772a1.2,1.2,0,0,1,.536.972c.08.428-.08.535-.482.5-.223-.018-.295-.089-.33-.3-.125-.892-.277-1-1.179-.99-.241,0-.357.062-.33.321.018.178,0,.357.009.535.009.25.036.446-.348.446s-.384-.187-.384-.464c.009-.829.027-1.667-.009-2.5-.018-.383.116-.481.473-.455.491.036.982,0,1.474.018.616.018.956.25,1.081.687A1.075,1.075,0,0,1,69.936,22.772Zm-1.152-.437c.152,0,.295.009.447,0a.418.418,0,0,0,.447-.49c-.018-.3-.205-.4-.482-.392s-.536.009-.795,0c-.2-.009-.241.08-.25.259C68.114,22.344,68.114,22.344,68.784,22.336Z" transform="translate(1315 2625.669)"/><path class="b" d="M53.314,24.226c-.268,0-.536-.009-.8,0-.223.009-.348-.009-.357-.294-.009-.312.143-.33.375-.321.447.009.893,0,1.34,0,.259,0,.5-.062.5-.375s-.232-.419-.518-.428c-.313-.009-.625.009-.938-.018a.969.969,0,0,1,0-1.935c.607-.027,1.224,0,1.831-.018.232-.009.259.116.259.3.009.214-.045.33-.295.321-.473-.018-.956,0-1.429,0-.259,0-.491.045-.482.375.009.294.223.348.465.357a9.289,9.289,0,0,1,1.117.053.9.9,0,0,1,.8,1.043.909.909,0,0,1-.893.927c-.322.027-.652.009-.983.009Z" transform="translate(1315 2625.669)"/><path class="b" d="M37.408,20.829c1.152,0,1.7.562,1.7,1.748a1.469,1.469,0,0,1-1.634,1.667,1.513,1.513,0,0,1-1.724-1.685C35.737,21.381,36.264,20.829,37.408,20.829Zm-.857,1.721a1.842,1.842,0,0,0,0,.223c.054.606.339.909.866.918.509,0,.768-.267.857-.874a2.2,2.2,0,0,0-.054-.838.712.712,0,0,0-.652-.571C36.9,21.3,36.541,21.7,36.55,22.549Z" transform="translate(1315 2625.669)"/><path class="b" d="M57.8,22.844c-.2,0-.384-.009-.581,0-.116,0-.259-.054-.321.08a.392.392,0,0,0,.08.375.677.677,0,0,0,.607.3c.286.009.563.027.849.009.259-.018.33.089.33.33s-.107.3-.322.294c-.331-.018-.652-.009-.983-.009a1.516,1.516,0,0,1-1.4-2.158,1.36,1.36,0,0,1,1.367-1.222c.339-.009.688.009,1.027-.009.232-.009.313.071.313.3-.009.214-.045.33-.295.321-.295-.018-.6,0-.893,0a.733.733,0,0,0-.5.16.511.511,0,0,0-.188.517c.054.2.25.1.393.107.4.009.8.018,1.206,0,.223-.009.277.08.277.285s-.036.348-.286.33A5.814,5.814,0,0,0,57.8,22.844Z" transform="translate(1315 2625.669)"/><path class="b" d="M46.358,24.19c-.554.134-.956.08-1.072-.535a.268.268,0,0,0-.33-.214,1.874,1.874,0,0,1-.447,0,.625.625,0,0,0-.813.517c-.063.241-.581.383-.822.276-.125-.062-.071-.143-.045-.214.411-1,.822-2.006,1.241-3,.125-.285.393-.125.59-.16.161-.027.313-.018.393.187C45.473,22.077,45.911,23.111,46.358,24.19Zm-1.822-2.452c-.089.223-.179.419-.259.615-.2.473-.2.455.295.482.4.018.464-.116.286-.437A3.2,3.2,0,0,0,44.536,21.738Z" transform="translate(1315 2625.669)"/><path class="b" d="M63.336,22.139c0-.294.018-.6-.009-.892s.045-.419.375-.419.357.134.348.4c-.018.517-.009,1.043,0,1.56,0,.633.241.9.777.9s.732-.232.741-.874c0-.553.018-1.1-.009-1.649-.009-.3.125-.33.366-.33.259,0,.375.045.366.339-.027.624,0,1.248-.018,1.872a1.1,1.1,0,0,1-1.081,1.186,4.028,4.028,0,0,1-.8,0,1.088,1.088,0,0,1-1.054-1.15C63.327,22.763,63.336,22.451,63.336,22.139Z" transform="translate(1315 2625.669)"/><path class="b" d="M61.47,24.226c-1.536,0-2.2-.892-1.778-2.381a1.271,1.271,0,0,1,1.268-.99c.375-.018.741.009,1.117-.018.259-.018.286.107.286.321.009.241-.08.312-.313.3-.295-.018-.6-.009-.893,0a.687.687,0,0,0-.723.642,2.386,2.386,0,0,0-.009.713c.089.615.286.785.911.794.223,0,.447.009.67,0s.357,0,.366.294-.125.348-.375.33A5.16,5.16,0,0,0,61.47,24.226Z" transform="translate(1315 2625.669)"/><path class="b" d="M33.691,20.838c.384,0,.768.009,1.161,0,.232-.009.268.1.268.294s-.018.321-.277.33c-.84.036-.84.045-.84.9,0,.517-.018,1.034.009,1.56.018.321-.17.3-.393.312s-.357-.027-.348-.3c.018-.713-.009-1.427.009-2.131.009-.276-.08-.375-.348-.348-.143.018-.295-.009-.447.009-.25.027-.286-.1-.295-.312-.009-.232.08-.312.313-.3C32.9,20.855,33.289,20.838,33.691,20.838Z" transform="translate(1315 2625.669)"/><path class="b" d="M41.14,20.837c.384,0,.768.009,1.161-.009.241-.009.33.062.33.321,0,.276-.125.3-.348.3-.759.009-.759.018-.759.758,0,.562-.018,1.123.009,1.685.009.312-.134.321-.375.33s-.375-.027-.366-.33c.018-.7-.009-1.391.018-2.086.009-.3-.089-.4-.375-.366-.134.018-.268-.009-.4.009-.223.018-.313-.053-.322-.294s.071-.339.331-.33C40.4,20.855,40.774,20.837,41.14,20.837Z" transform="translate(1315 2625.669)"/><path class="b" d="M76.752,20.891c.768-.116.768-.116,1.116.482.134.232.268.464.42.713a1.328,1.328,0,0,0,.491-.669.851.851,0,0,1,1.161-.526,3.908,3.908,0,0,1-.67,1.025A2.288,2.288,0,0,0,78.69,23.8c.063.4-.125.481-.473.446-.2-.018-.277-.089-.241-.267a3.138,3.138,0,0,0-.884-2.55C76.966,21.257,76.868,21.078,76.752,20.891Z" transform="translate(1315 2625.669)"/><path class="b" d="M74.617,20.837c.384,0,.777.018,1.161-.009.268-.018.277.134.277.33s-.036.285-.268.294c-.848.045-.848.054-.848.9,0,.508-.018,1.007.009,1.516.018.3-.1.366-.384.366s-.357-.08-.348-.357c.018-.7-.009-1.391.009-2.086.009-.276-.08-.375-.348-.348-.143.018-.295-.009-.447.009-.241.027-.3-.08-.3-.3.009-.205.027-.33.286-.321C73.813,20.855,74.215,20.837,74.617,20.837Z" transform="translate(1315 2625.669)"/><path class="b" d="M47.178,22.077a6.707,6.707,0,0,0-.009-.847c-.045-.357.125-.419.429-.41.241.009.3.089.295.312-.009.606-.009,1.213.018,1.819.027.535.143.624.688.642a3.591,3.591,0,0,0,.536,0c.241-.018.375.018.375.321-.009.285-.143.3-.357.294-.268-.009-.536,0-.8-.009a1.07,1.07,0,0,1-1.17-1.168c-.009-.294.009-.624,0-.954Z" transform="translate(1315 2625.669)"/><path class="b" d="M71.553,22.5c0-.464.018-.918-.009-1.382-.018-.312.179-.276.375-.276.214-.009.366-.009.357.294-.018.936-.018,1.872,0,2.8.009.285-.125.312-.348.3s-.4.009-.384-.312C71.571,23.45,71.553,22.969,71.553,22.5Z" transform="translate(1315 2625.669)"/><path class="a" d="M2.153,21.373c.116.027.1.125.107.214A.294.294,0,0,1,2.153,21.373Z" transform="translate(1315 2625.669)"/><path class="b" d="M17.525,16.032c-.473,0-.956.018-1.429-.009-.277-.009-.357.089-.348.357.018.874.009,1.757,0,2.63A1.584,1.584,0,0,1,14.1,20.668c-1.679.1-2.456-.508-2.331-2.283.045-.633-.009-1.275.018-1.917.009-.339-.071-.464-.438-.455-.849.027-1.7.018-2.546.009a1.555,1.555,0,0,1-1.661-1.641v-.669a1.579,1.579,0,0,1,1.67-1.685c.866-.018,1.724-.018,2.59,0,.295.009.393-.08.384-.374-.018-.892-.009-1.783,0-2.675A1.575,1.575,0,0,1,13.5,7.294a5.467,5.467,0,0,1,.938.036,1.521,1.521,0,0,1,1.322,1.551c.009.892.018,1.783,0,2.675-.009.357.072.49.465.481.848-.027,1.7-.018,2.546-.009a1.642,1.642,0,0,1,1.76,1.748c.1,1.712-.643,2.381-2.269,2.256C18,16.014,17.758,16.032,17.525,16.032Z" transform="translate(1315 2625.669)"/></g></svg>