<svg xmlns="http://www.w3.org/2000/svg" width="77.001" height="16" viewBox="0 0 77.001 16"><defs><style>.a{fill:#0097cc;}</style></defs><g transform="translate(-913 -2632)"><path class="a" d="M63.508,10.925H69.9a3.761,3.761,0,0,0,.047-.725,5.643,5.643,0,1,0-11.282,0A5.739,5.739,0,0,0,64.307,16a5.618,5.618,0,0,0,5.265-3.77H66.234a2.808,2.808,0,1,1-1.927-4.882,2.786,2.786,0,0,1,2.538,1.74H63.508Z" transform="translate(913 2632)"/><path class="a" d="M22.94,10.1A5.717,5.717,0,0,0,17.3,4.4a5.739,5.739,0,0,0-5.641,5.8A5.739,5.739,0,0,0,17.3,16a4.832,4.832,0,0,0,1.457-.193v-3.19a2.586,2.586,0,0,1-1.457.435A2.853,2.853,0,1,1,20.073,10.2v5.414H22.94Z" transform="translate(913 2632)"/><path class="a" d="M46.915,4.4a5.791,5.791,0,0,0-1.316.145v3.19A2.439,2.439,0,0,1,46.915,7.4a2.853,2.853,0,1,1-2.774,2.9V.193H41.273V10.2a5.643,5.643,0,1,0,11.282,0A5.739,5.739,0,0,0,46.915,4.4Z" transform="translate(913 2632)"/><path class="a" d="M56.976.193h-3.1v15.42h3.1Z" transform="translate(913 2632)"/><path class="a" d="M74.321,5.752V4.592h-3.1V15.613h3.1V8.894A3.124,3.124,0,0,1,77,7.831V4.544A3.537,3.537,0,0,0,74.321,5.752Z" transform="translate(913 2632)"/><path class="a" d="M36.525,4.5A3.594,3.594,0,0,0,33.47,6.381a4.247,4.247,0,0,0-3.15-1.934A3.226,3.226,0,0,0,27.876,5.9V4.544H24.82V15.468h3.056V9.474c0-.822.376-1.74,1.5-1.74,1.175,0,1.316,1.112,1.316,1.74v5.994h3.056V9.474c0-1.112.329-1.837,1.41-1.837s1.41.87,1.41,1.837v5.994h3.056v-7.4C39.628,6.961,38.641,4.5,36.525,4.5Z" transform="translate(913 2632)"/><path class="a" d="M11.235,5.317A5.083,5.083,0,0,0,6.534.193H0v15.42H3.1V3.094H6.158S8.415,2.949,8.415,5.7c0,3-3.949,2.852-3.949,2.852l3.056,7.057h3.714l-2.82-5.607S11.235,9.184,11.235,5.317Z" transform="translate(913 2632)"/><path class="a" d="M58.291,2.224A2.2,2.2,0,0,1,60.5,0a2.157,2.157,0,0,1,2.162,2.224A2.157,2.157,0,0,1,60.5,4.447,2.227,2.227,0,0,1,58.291,2.224ZM60.5,4.06A1.744,1.744,0,0,0,62.24,2.224a1.742,1.742,0,1,0-3.479,0A1.717,1.717,0,0,0,60.5,4.06Zm-.47-.58h-.376V.918h.94c.564,0,.893.242.893.725a.694.694,0,0,1-.658.725l.705,1.112h-.423l-.658-1.112H60.03Zm0-1.4h.47c.329,0,.611,0,.611-.435,0-.338-.282-.387-.564-.387H60.03Z" transform="translate(913 2632)"/></g></svg>