<svg xmlns="http://www.w3.org/2000/svg" width="111.567" height="19.383" viewBox="0 0 111.567 19.383"><defs><style>.a{fill:#f6a51a;}.b{fill:#090909;}</style></defs><g transform="translate(-637.002 -2630.011)"><path class="a" d="M59.86,2.233c-.03,1.784.227,1.395-1.425,1.889-.53.15-1.076.27-1.607.435-.455.15-.667.06-.652-.45.015-.63.03-1.245,0-1.874-.015-.45.2-.63.591-.72.773-.21,1.561-.4,2.334-.645.561-.18.819-.075.773.555A7.085,7.085,0,0,0,59.86,2.233Z" transform="translate(636.654 2629.221)"/><path class="b" d="M83.871,5.488a.5.5,0,0,0-.015-.15c-.91-.18-3.32.735-3.471,1.35a3.516,3.516,0,0,0-2.016-1.365,4.438,4.438,0,0,0-4.957,2.294,6.468,6.468,0,0,0,0,5.983,4.034,4.034,0,0,0,3.35,2.234,3.748,3.748,0,0,0,3.668-1.5c.045.21.076.33.106.45a7.279,7.279,0,0,1-.333,2.054c-.94,1.17-2.592,1.425-3.35.345-.561-.795-1.046-.735-1.758-.465a8.715,8.715,0,0,1-1.516.42c-.485.075-.424.3-.273.615a3.506,3.506,0,0,0,1.834,1.8,7.472,7.472,0,0,0,6.352-.18,3.858,3.858,0,0,0,2.183-2.789,1.342,1.342,0,0,0,.182-.72c.106-3.314.091-6.613.015-9.927A.52.52,0,0,0,83.871,5.488Zm-3.35,5.023c0,1.709-.8,2.654-2.2,2.639-1.152-.015-1.865-.78-2.031-2.159a3.9,3.9,0,0,1,.182-1.619,1.858,1.858,0,0,1,1.88-1.425,1.937,1.937,0,0,1,1.971,1.425A3.22,3.22,0,0,1,80.521,10.511Z" transform="translate(636.654 2629.221)"/><path class="b" d="M38.061,9.536a3.144,3.144,0,0,0-.591-1.709.063.063,0,0,0-.045-.09,4.112,4.112,0,0,0-2.4-2.069c-.106-.045-.212-.075-.318-.12a1.566,1.566,0,0,0-.894-.195,4.7,4.7,0,0,0-2.729.135,2.116,2.116,0,0,0-1.107.4,3.317,3.317,0,0,0-1.516,1.08.408.408,0,0,0-.273.27,2.456,2.456,0,0,0-.728,1.095.485.485,0,0,0-.182.435c-.167.1-.152.285-.182.45a2.778,2.778,0,0,0-.242,1.35,4.791,4.791,0,0,0,.3,2.4,1.731,1.731,0,0,0,.318.795c.061.09.106.195.167.285s.121.195.182.285a3.327,3.327,0,0,0,1.273,1.23,3.051,3.051,0,0,1,.273.195c.015-.015.015-.045.03-.06-.015.015-.015.03-.03.06a.836.836,0,0,0,.485.21,4.687,4.687,0,0,0,2.577.615,6.3,6.3,0,0,0,2.425-.21,2.685,2.685,0,0,0,.91-.285,1.653,1.653,0,0,0,.788-.315c.137-.075.288-.15.424-.225.515-.27,1.258-.42.682-1.26-.121-.3-.227-.585-.349-.885a1.631,1.631,0,0,0-.3-.84c-.3.24-.576.465-.864.69-.061.03-.106.045-.167.075-.424.225-.864.465-1.288.69a6.116,6.116,0,0,1-2.8.105,4.351,4.351,0,0,1-1.046-.765c-.076-.15-.136-.315-.212-.465.2-.075.394-.15.576-.225a1.409,1.409,0,0,0,.743-.195,2.134,2.134,0,0,0,.91-.27c.045-.015.106-.015.152-.03a.309.309,0,0,0,.318-.09c.3-.075.591-.15.894-.225a.276.276,0,0,0,.3-.12,28.758,28.758,0,0,0,3.547-.96c.136-.12.076-.255.046-.4A1.093,1.093,0,0,0,38.061,9.536Zm-3.487-.045c-.106.03-.212.045-.318.075-1.152.3-2.289.615-3.441.915-.167.045-.364.24-.5-.045v-.15c0-.1.015-.195.015-.3.137-.39.258-.78.394-1.17.106-.165.2-.315.3-.48a3.461,3.461,0,0,1,1.152-.69,2.2,2.2,0,0,1,2.425,1.2C34.7,9.056,34.847,9.281,34.574,9.491Zm1.713,1.484c.015-.03.045-.06.045-.09Z" transform="translate(636.654 2629.221)"/><path class="b" d="M53.72,7.842c.758,0,1.652.21,1.607-1.035,0-.09.106-.165.136-.255.379-1.02.364-1.05-.728-1.05a7.2,7.2,0,0,0-.985.015c-.455.045-.637-.075-.606-.555.03-.51-.03-1.035-.046-1.559.03-.21.2-.435-.076-.6h.061a.2.2,0,0,0,.015-.075c-.091-.015-.167-.045-.258-.06a1.123,1.123,0,0,0-.212.06c-.258.075-.515.15-.758.225a.508.508,0,0,0-.455.135,1.874,1.874,0,0,0-.758.18c-.121-.015-.243-.015-.3.1-.349.06-.773-.03-.773.555.03,2.924.03,5.833.045,8.757v.3c.015.255.03.495.03.75a2.843,2.843,0,0,0,.622,1.784,1.019,1.019,0,0,0,.682.48c.152.18.379.165.561.24l.773.135c.106,0,.212.015.333.015.2,0,.409.015.606.015.349,0,.713-.015,1.061-.015a.582.582,0,0,0,.47-.075c.606-.225.364-.84.561-1.245.045-.135.076-.27.121-.4.03-.15.076-.315.106-.465a.3.3,0,0,1,.061-.12c.015-.12.212-.3-.106-.33-.136.015-.273.015-.409.03-.106,0-.212.015-.318.015a2.482,2.482,0,0,0-.333.015,1.609,1.609,0,0,1-1.182-.435c-.212-1.709-.03-3.434-.091-5.143C53.144,7.737,53.463,7.842,53.72,7.842Z" transform="translate(636.654 2629.221)"/><path class="b" d="M46.626,9.971c-.44-.12-.879-.195-1.319-.3a8.751,8.751,0,0,1-2.607-.72c-.606-.36-.606-.96,0-1.275a2.137,2.137,0,0,1,2.729.81c.121.24.227.345.5.255.773-.225,1.546-.48,2.319-.645.47-.1.394-.33.273-.63a3.019,3.019,0,0,0-1.834-1.679,8.3,8.3,0,0,0-5.548-.21,3.34,3.34,0,0,0-2.213,1.679c-.864,1.814.061,3.629,2.183,4.2,1.091.285,2.2.51,3.3.78a1.2,1.2,0,0,1,1.031,1.035c-.136.63-.652.84-1.167,1.065-.106.015-.2.015-.3.03h-.606a1.864,1.864,0,0,1-1.774-1.395c-.121-.465-.333-.39-.637-.3-.7.195-1.395.435-2.107.57-.47.09-.424.345-.318.645A3.035,3.035,0,0,0,40.183,15.8a.939.939,0,0,0,.606.3,1.962,1.962,0,0,0,.91.285,2.824,2.824,0,0,0,1.364.18,6.2,6.2,0,0,0,1.971-.045c.258-.06.531-.1.788-.165a1.838,1.838,0,0,0,.728-.255,2.768,2.768,0,0,0,1.076-.525,3.2,3.2,0,0,0,1.319-3.3A2.948,2.948,0,0,0,46.626,9.971Zm-2.441,6.358c.03.015.061.045.091.045C44.246,16.359,44.215,16.329,44.185,16.329Z" transform="translate(636.654 2629.221)"/><path class="b" d="M4.287,2.414c0-.21.076-.45-.091-.675-1,.27-2.016.6-3.047.81-.7.15-.94.465-.728,1.125L.376,15.954c0,.3.106.42.409.33.925.015,1.865-.015,2.789.06.622.045.743-.18.728-.75C4.287,11.215,4.287,6.807,4.287,2.414Z" transform="translate(636.654 2629.221)"/><path class="b" d="M70.35,5.787a4.552,4.552,0,0,0-5.306.6c-.152.15-.212.39-.546.42v-.6c-.015-1.155-.015-1.155-1.167-.7-.44.12-.894.225-1.334.345-.485.135-1,.075-.985.9.061,3,.03,6,.015,9,0,.435.091.63.576.6a21.806,21.806,0,0,1,2.426,0c.455.015.606-.1.591-.57-.03-1.649-.015-3.3-.015-4.948,0-2.054.667-2.7,2.713-2.639.212.15.424.3.621.45.091.165.182.315.273.48.061.585.121,1.185.167,1.769v5.1c-.045.57.349.3.606.315.819.015,1.652.015,2.471.045.3.015.455-.06.455-.4-.03-2.129-.03-4.259-.045-6.4C71.957,8.052,71.729,6.672,70.35,5.787Z" transform="translate(636.654 2629.221)"/><path class="b" d="M14.535,5.622a4.448,4.448,0,0,0-4.942.765c-.2.195-.394.39-.606.585v-1.8a7.2,7.2,0,0,0-1.546.45l-.3.045c-1.971.525-1.652.165-1.607,1.6-.015,2.864-.015,5.743-.03,8.607,0,.315.091.45.424.435.955-.03,1.91-.03,2.865-.045.167.075.3.09.273-.165V10.856c.03-.4.045-.795.076-1.2l.015-.03a2.43,2.43,0,0,1,.879-1.245c1.758-.69,2.789.06,2.759,1.589,0,.045.045.09.061.135-.015,1.919-.015,3.824-.045,5.743,0,.36.121.465.47.465.879-.015,1.758-.03,2.638,0,.364.015.47-.105.47-.465-.015-2.159-.03-4.333-.03-6.493C16.415,7.812,16.111,6.387,14.535,5.622Z" transform="translate(636.654 2629.221)"/><path class="b" d="M111.87,10.931A1.933,1.933,0,0,0,109.9,9.056a2.549,2.549,0,0,0-2.471,1.245,2.255,2.255,0,0,0-2.546-1.215c-.8.135-1.243.75-1.789,1.2a2.673,2.673,0,0,0,0-.6c-.03-.165.2-.51-.243-.465-.288.03-.545.075-.545.465.015,2.1.015,4.184,0,6.283,0,.315.151.36.424.36s.44-.03.44-.36c-.015-.4-.015-.795,0-1.2.045-1.38-.2-2.789.379-4.124a2.83,2.83,0,0,0,.212-.21,1.831,1.831,0,0,1,1.986-.57c.758.21.864.9.924,1.559.016.225.016.45.016.675,0,1.245.03,2.5-.016,3.749-.015.525.273.51.607.48.409-.045.242-.375.257-.585a34.471,34.471,0,0,1,.122-4.333,1.715,1.715,0,0,1,1.3-1.574,1.51,1.51,0,0,1,2.062,1.634c.03,1.47.015,2.939,0,4.424,0,.315.091.45.424.435.288-.015.47-.03.47-.39C111.885,14.274,111.931,12.61,111.87,10.931Z" transform="translate(636.654 2629.221)"/><path class="b" d="M96.97,9.161c-1.47.4-2.365,1.754-2.38,3.674a3.535,3.535,0,0,0,.182,1.335,3.224,3.224,0,0,0,3.017,2.4,3.107,3.107,0,0,0,2.987-2.009,4.509,4.509,0,0,0-.091-3.7A3.063,3.063,0,0,0,96.97,9.161Zm3.138,4.6A2.348,2.348,0,0,1,97.773,15.8a2.467,2.467,0,0,1-2.228-2.279,6.011,6.011,0,0,1-.061-.75,3.467,3.467,0,0,1,.409-1.739,2.148,2.148,0,0,1,1.986-1.26A2.086,2.086,0,0,1,99.85,11.05,3.913,3.913,0,0,1,100.108,13.765Z" transform="translate(636.654 2629.221)"/><path class="b" d="M27.146,6.837c.136-.33.273-.66.394-.99.152-.45-.152-.33-.394-.315H24.887c-.3.09-.758-.345-.91.255a24.759,24.759,0,0,0-.925,3.3c-.167.165-.136.39-.167.585a.639.639,0,0,0-.121.465.262.262,0,0,0-.106.3c-.03.105-.045.2-.076.3-.3.555-.288,1.23-.667,1.814-.622-2.219-1.228-4.378-1.834-6.523-.076-.255-.076-.54-.485-.54-1.107.015-2.2,0-3.4,0,1.2,3.569,2.365,7.048,3.547,10.526a.386.386,0,0,0,.44.3c1.182-.015,2.365,0,3.547,0,.136,0,.243-.045.258-.195a4.609,4.609,0,0,0,.44-1.335,30.757,30.757,0,0,0,1.228-3.614c.152-.12.136-.285.152-.45a6.35,6.35,0,0,0,.561-1.664C26.631,8.337,26.888,7.587,27.146,6.837ZM25.115,9.131c-.015-.03-.015-.075-.03-.1A.216.216,0,0,1,25.115,9.131Z" transform="translate(636.654 2629.221)"/><path class="b" d="M93.391,13.915c-.379-.12-.5-.015-.621.375a1.907,1.907,0,0,1-2.5,1.41A2.869,2.869,0,0,1,88.556,12.8a3.472,3.472,0,0,1,.47-1.859,2.116,2.116,0,0,1,1.986-1.14,1.709,1.709,0,0,1,1.683,1.26c.136.4.318.375.667.3.5-.12.258-.42.167-.63A2.427,2.427,0,0,0,91.39,9.086a2.962,2.962,0,0,0-3.138,1.484,4.292,4.292,0,0,0,.03,4.5,2.92,2.92,0,0,0,2.941,1.47,2.686,2.686,0,0,0,2.4-1.994C93.695,14.259,93.785,14.035,93.391,13.915Z" transform="translate(636.654 2629.221)"/><path class="b" d="M59.374,5.263c-.182.09-.409.03-.561.21-.743.195-1.486.4-2.228.57-.349.075-.349.27-.349.525.015,3.089.015,6.178.03,9.252.015.21-.243.57.288.465a14.385,14.385,0,0,0,2.274,0c.379-.06,1.016.42,1.016-.48V5.623C59.844,5.293,59.783,5.068,59.374,5.263Z" transform="translate(636.654 2629.221)"/><path class="b" d="M86.162,14.844c-.652,0-.637.315-.652.765,0,.465-.015.78.652.765s.576-.375.561-.75C86.723,15.219,86.829,14.844,86.162,14.844Z" transform="translate(636.654 2629.221)"/></g></svg>