<svg xmlns="http://www.w3.org/2000/svg" width="90.375" height="22.779" viewBox="0 0 90.375 22.779"><defs><style>.a{fill:#ff0132;}</style></defs><g transform="translate(-1037 -2629)"><path class="a" d="M62.963,20.056a10.668,10.668,0,0,0-1.3.433c0,.743-.124,4.147-.124,4.147A3.482,3.482,0,0,1,59,27.979l-.681-.186c.867-.5,1.3-.99,1.362-1.362a14.852,14.852,0,0,0,.248-3.776s0-1.609-.062-2.167c-.248-.062-1.362-.31-1.733-.371v-.5c.681,0,2.29.062,2.847.062.619,0,1.362,0,1.981-.062v.433Zm28.907.99a4.844,4.844,0,0,1-.867.186c0,.557.062,4.581.062,5.509,0,.124-.124.186-.31.062-.867-.867-3.652-4.024-4.581-5.138,0,.743.062,3.59.062,4.085a9.23,9.23,0,0,0,1.3.31l.062.557H84.566V26.06a4.852,4.852,0,0,1,.867-.31c.062-.31.062-4.271.062-4.581-.248,0-.681-.062-.99-.062v-.681h2.228c.8.929,2.724,3.033,3.714,4.147,0-.929-.062-3.1-.062-3.466a7.763,7.763,0,0,1-.929-.124l-.062-.557c.186,0,1.238.062,1.424.062s1.052-.062,1.238-.062ZM75.4,22.718c0,.743-.681,1.052-1.486,1.176v.557c1.609-.186,2.662-.8,2.662-1.8v-.062c0-1.114-.743-2.1-2.476-2.1H70.762l.124.619a6.005,6.005,0,0,0,1.052.062c0,.743.124,3.9.062,4.828-.186.062-.8.186-1.052.248l-.062.557h3.838V26.37a11.846,11.846,0,0,0-1.3-.248c0-.186-.062-4.643-.062-4.89a7.5,7.5,0,0,1,1.238.062,1.309,1.309,0,0,1,.867,1.362M30.032,8.419c-.433.062-2.29.433-2.909.557-.681.186-6.995,5.138-7.428,6.314-.062.371,0,4.7,0,4.7l3.59.248-.124,1.176c-.5-.062-3.838,0-5.942,0-1.052,0-4.271.124-5.385.062l.124-1.114a7.425,7.425,0,0,0,2.352-.248c.619-.186,1.114-.433,1.114-1.052V15.352A62.265,62.265,0,0,0,8.552,7c-.371-.124-3.033-.433-3.652-.557l.124-1.114H17.094l-.186,1.052c-.557.124-3.1.186-3.776.371,1.733,2.538,4.457,5.881,5.323,7.119.5-.681,5.138-3.962,5.262-4.952-.681-.124-2.847-.433-3.219-.433l-.186-1.114h10.4l-.681,1.052Zm25.751,9.656c-1.919-.124-5.262-.062-7.18,0l.124-.99c.31,0,1.857-.248,2.228-.31V13.309c-.929,0-6.252.124-7.057.31v3.1s2.29.248,2.786.31l-.124,1.052c-2.043-.124-6.19-.124-8.171,0l.124-1.114c.619,0,2.29-.186,2.662-.248.062-.743.062-1.981.062-3.219V11.947c0-.557,0-2.043-.062-2.6-.433,0-2.352-.186-2.847-.186l.124-.99c1.733.124,6.995.124,8.418,0l-.124.929c-.433,0-2.29.31-2.847.31v2.724h7.057V8.109c-.5-.062-1.8-.31-2.352-.371l.124-.929c1.176.062,5.881.062,7.119,0l-.062.99c-.371,0-1.733.248-2.228.31V16.9s1.981.248,2.414.309l-.186.867Zm35.593,1.052-1.3.062.248-2.228,1.3.062,1.238-.062-.248,2.167Zm1.486-3.962H90.942V5.2h4.333L94.9,6.686Z" transform="translate(1032.1 2623.8)"/><path class="a" d="M75.94,17.633h-.99c-1.609-.062-4.7-.929-4.7-3.714v-.248c0-2.724,3.1-3.652,4.7-3.714h.99c1.609.062,4.7.929,4.7,3.714v.248c0,2.724-3.1,3.652-4.7,3.714m7.428-3.9c0-3.157-3.033-5.076-7.676-5.2h-.5c-4.89.124-7.614,2.043-7.614,5.2v.124c0,2.971,2.971,5.076,7.614,5.2h.5c4.643-.124,7.614-2.1,7.676-5.2v-.124M93.4,16.58H92.034c-1.733-.124-4.89-1.176-4.952-4.147.062-2.971,3.219-3.962,4.952-4.085H93.4c1.733.124,4.89,1.114,4.952,4.085,0,2.971-3.219,4.085-4.952,4.147m7.985-4.147h0C101.257,9.09,98.1,6.924,92.963,6.8h-.371c-5.138.124-8.357,2.1-8.418,5.571v.124c.124,3.466,3.281,5.509,8.418,5.633h.371c5.076-.124,8.295-2.167,8.418-5.695h0M41.957,15.9c.186-.433,1.671-3.652,1.671-3.652L45.052,15.9Zm7.676,4.209c-.557-.867-2.538-5.881-3.466-8.109l1.671-.248.186-.867H45.485c-.929,0-4.89,0-5.262-.062l-.062.867,1.981.5S39.233,18,38.614,18.809c-.5.124-1.8.433-2.29.5L36.2,20.356c.371-.062,5.509,0,6,0l.124-.99-1.8-.433s.8-1.671.929-1.857c.557-.124,3.9-.186,3.9-.186l1.176,3.219a18.408,18.408,0,0,1-1.981.248l-.124,1.052H51.8l.124-.929a15.989,15.989,0,0,1-2.29-.371m45.373,6.5c-.681-1.424-1.8-4.147-2.1-4.89l.8-.124.062-.557-3.281.124v.433l.867.124c-.557,1.238-2.043,4.395-2.29,4.766-.248.062-.5.186-.743.248l-.062.5c.743-.062,2.414,0,2.662,0v-.433l-.8-.248s.5-1.238.681-1.609h2.29l.619,1.609s-.557.124-.99.186l-.062.433H96l.062-.5a2.408,2.408,0,0,1-1.052-.062Zm-4.024-2.1c.124-.31.99-2.352.99-2.352L92.9,24.5Zm-9.78,2.1c-.433-.867-1.548-3.59-2.1-4.89l.867-.186v-.5l-3.343.124v.433l.867.124c-.557,1.238-2.043,4.395-2.29,4.766a3.489,3.489,0,0,1-.743.248l-.062.5h2.662v-.433l-.8-.248s.5-1.238.681-1.609h2.29l.619,1.609s-.557.124-.99.186l-.062.433H82.13l.062-.5a2.208,2.208,0,0,1-.99-.062Zm-4.024-2.1c.124-.31.99-2.352.99-2.352L79.1,24.5Z" transform="translate(1020.174 2623.19)"/></g></svg>