<svg xmlns="http://www.w3.org/2000/svg" width="70.33" height="26.68" viewBox="0 0 70.33 26.68"><defs><style>.a{fill:red;}</style></defs><g transform="translate(-795.998 -2627)"><path d="M30.944,10.26A7.017,7.017,0,0,0,27.653,11.4V10.67c0-.158-.066-.221-.229-.221H25.377c-.164,0-.262.095-.262.221v15.5c0,.158.066.252.229.252h2.079a.228.228,0,0,0,.229-.252V12.894A4.616,4.616,0,0,1,29.8,12.31c1.113,0,2,.536,2,1.64V26.186a.237.237,0,0,0,.262.252H34.1a.226.226,0,0,0,.229-.252V13.256C34.366,11.3,33.121,10.26,30.944,10.26Z" transform="translate(796 2626.848)"/><path d="M46.924,2.487H44.878c-.164,0-.262.095-.262.221v7.821a6.44,6.44,0,0,0-2.079-.442c-3.34,0-5.632,3.075-5.632,8.972,0,5.062,2.227,7.774,5.141,7.774a4.692,4.692,0,0,0,2.98-1.309l.442.725a.288.288,0,0,0,.295.174h1.179a.228.228,0,0,0,.229-.252V2.707C47.154,2.55,47.088,2.487,46.924,2.487ZM39.606,18.538c0-3.248.982-6.481,3.013-6.481a3.181,3.181,0,0,1,1.981.709V24.231a3.988,3.988,0,0,1-1.834.5C40.588,24.751,39.606,22.244,39.606,18.538Z" transform="translate(796 2626.848)"/><path d="M54.8,10.118c-3.422,0-5.108,4.3-5.108,9,0,4.9,2.407,7.663,5.5,7.663a8.066,8.066,0,0,0,3.6-.993.242.242,0,0,0,.131-.3l-.262-1.041a.227.227,0,0,0-.262-.189,11.332,11.332,0,0,1-2.292.315c-2.538,0-3.7-2.176-3.7-5.046v-.694a19.459,19.459,0,0,0,2.014.173H59.2V17.655C59.22,12.751,57.436,10.118,54.8,10.118Zm-.164,6.875c-.753,0-2.129.174-2.129.174s.016-.536.082-1.041c.295-2.7.966-4.052,2.112-4.052,1,0,1.686,1.388,1.85,3.832.033.5.033,1.072.033,1.072H54.636Z" transform="translate(796 2626.848)"/><path d="M21.219,12.136a3.9,3.9,0,0,0-3.667-2.066,10.361,10.361,0,0,0-3.586.82c-.2.095-.328.158-.328.315a.656.656,0,0,0,.1.284l.7,1.435a.3.3,0,0,0,.278.2.519.519,0,0,0,.278-.11,4.971,4.971,0,0,1,2.341-.962A1.747,1.747,0,0,1,18.96,13.3a7.342,7.342,0,0,1,.426,2.759v.331a5.465,5.465,0,0,0-2.292-.6c-2.963,0-4.568,2.712-4.568,5.613,0,3.122,1.866,5.424,4.126,5.424a4.289,4.289,0,0,0,3.144-1.593s.409.93.458,1.041a.241.241,0,0,0,.262.158h1.2a.228.228,0,0,0,.229-.252V17.2C21.94,14.975,21.825,13.288,21.219,12.136ZM19.385,23.915a2.9,2.9,0,0,1-1.932.836,1.827,1.827,0,0,1-1.523-.8,4.578,4.578,0,0,1-.7-2.7c0-1.719.655-3.469,2.047-3.469a3.529,3.529,0,0,1,2.1.709v5.424Z" transform="translate(796 2626.848)"/><path d="M70.059,10.45H68.226a.365.365,0,0,0-.36.236c-.115.3-.884,2.255-1.212,3.075-.229.583-.835,2.239-.835,2.239h-.066s-.442-1.214-.688-1.813c-.2-.489-1.212-3.075-1.343-3.39-.065-.174-.147-.347-.409-.347h-2a.3.3,0,0,0-.278.378c.066.142,3.258,7.143,3.258,7.143S60.874,25.823,60.76,26a.307.307,0,0,0,.262.441h1.752c.295,0,.409-.158.508-.394.246-.678.622-1.624,1.162-3.091.36-.978.917-2.681.917-2.681h.065s.606,1.734.835,2.3c.573,1.435,1.31,3.311,1.392,3.5.082.2.2.347.393.347h2a.263.263,0,0,0,.2-.41c-.229-.457-2.112-4.872-3.422-7.789,0,0,3.406-7.253,3.471-7.427C70.37,10.639,70.338,10.45,70.059,10.45Z" transform="translate(796 2626.848)"/><path class="a" d="M14.587.153H12.278a.334.334,0,0,0-.36.237C11.885.531,8.447,10.607,8.2,11.458c-.18.6-.753,2.7-.9,3.2L6.122,11.506c-.295-.867-3.078-8.341-3.16-8.641A.422.422,0,0,0,2.536,2.5H.293a.3.3,0,0,0-.278.378c.049.11,4.126,10.549,5.78,14.538V26.17c0,.158.065.252.229.252H8.152a.228.228,0,0,0,.229-.252v-8.7C9.757,13.792,14.767.673,14.832.515,14.9.342,14.881.153,14.587.153Z" transform="translate(796 2626.848)"/></g></svg>