<svg xmlns="http://www.w3.org/2000/svg" width="96.924" height="29.301" viewBox="0 0 96.924 29.301"><defs><style>.a{fill:#75b82c;}.b{fill:#3d90d5;}</style></defs><g transform="translate(-1231 -2576.694)"><path class="a" d="M.12,8.351l4.2,8.259A1.97,1.97,0,0,0,5.9,17.628l8.572-.018c.585,0,.826-.46.539-1.023l-4.2-8.261A1.97,1.97,0,0,0,9.232,7.307L.66,7.325H.62C.066,7.35-.159,7.8.12,8.351Z" transform="translate(1231 2577.623)"/><path class="a" d="M14.56,16.845l2.544,4.9a1.175,1.175,0,0,0,.946.6l5.106-.056c.349,0,.489-.277.317-.613l-2.544-4.9a1.167,1.167,0,0,0-.946-.6l-5.106.056h-.017C14.525,16.245,14.39,16.516,14.56,16.845Z" transform="translate(1232.842 2578.751)"/><path class="b" d="M15.189.3,10.083,7.062a1.9,1.9,0,0,0-.1,1.852l4.27,8.22c.29.561.81.642,1.158.18l5.108-6.762a1.9,1.9,0,0,0,.1-1.852L16.348.48A.757.757,0,0,0,15.691,0,.672.672,0,0,0,15.189.3Z" transform="translate(1232.244 2576.694)"/><path class="b" d="M13.88,16.862l-3.042,4.029a1.127,1.127,0,0,0-.061,1.1l2.542,4.9c.175.334.483.383.69.108l3.042-4.029a1.131,1.131,0,0,0,.061-1.1l-2.542-4.9a.451.451,0,0,0-.393-.286A.4.4,0,0,0,13.88,16.862Z" transform="translate(1232.355 2578.815)"/><path class="b" d="M63.051,19.609h1.706V6.364H63.051Z" transform="translate(1239.016 2577.504)"/><path class="a" d="M36.447,10.076a4.5,4.5,0,0,0-4.427,4.57h0v8.434h1.706V14.646h.009a2.74,2.74,0,1,1,2.739,2.826,2.7,2.7,0,0,1-2.116-1.034v2.233a4.3,4.3,0,0,0,2.1.545,4.572,4.572,0,0,0,0-9.14Z" transform="translate(1235.07 2577.976)"/><path class="a" d="M44.974,10.076a4.5,4.5,0,0,0-4.427,4.57h0v8.434h1.706V14.646h.009A2.739,2.739,0,1,1,45,17.472a2.7,2.7,0,0,1-2.116-1.034v2.233a4.3,4.3,0,0,0,2.1.545,4.572,4.572,0,0,0,0-9.14Z" transform="translate(1236.154 2577.976)"/><path class="a" d="M27.665,6.364a4.5,4.5,0,0,0-4.427,4.57v8.676h1.706V10.933h0a2.721,2.721,0,1,1,5.44,0h0v.994H26.007v1.76h4.381v5.922h1.706V10.933A4.5,4.5,0,0,0,27.665,6.364Z" transform="translate(1233.955 2577.504)"/><path class="b" d="M58.188,10.933a2.766,2.766,0,0,1,2.723-2.808h2.147V6.364H60.911a4.5,4.5,0,0,0-4.427,4.57v8.676H58.19V13.867H62.9v-1.76H58.19V10.933" transform="translate(1238.182 2577.504)"/><path class="b" d="M71.535,10.128v5.53a1.984,1.984,0,1,1-3.968,0h0v-5.53H65.859v5.537h0A3.78,3.78,0,0,0,68.7,19.32v3.754H70.4V19.32a3.785,3.785,0,0,0,2.837-3.655h0V10.128Z" transform="translate(1239.373 2577.982)"/><path class="b" d="M80.2,15.338a2.775,2.775,0,0,1-1.275,1.74A2.677,2.677,0,0,1,75.2,16.05a2.859,2.859,0,0,1,1-3.838,2.652,2.652,0,0,1,3.171.338l-3.828,2.28.854,1.523L78.165,15.3l3.584-2.134a4.664,4.664,0,0,0-.354-.8,4.354,4.354,0,0,0-6.049-1.672,4.649,4.649,0,0,0-1.62,6.242A4.352,4.352,0,0,0,79.772,18.6a4.557,4.557,0,0,0,2.162-3.265Z" transform="translate(1240.297 2577.975)"/><path class="b" d="M86.185,10.076a4.318,4.318,0,0,0-2.721.967v-.926H81.758v9.02h1.706V14.646a2.766,2.766,0,0,1,2.721-2.808h.345v-1.76Z" transform="translate(1241.395 2577.976)"/><path class="a" d="M54.842,14.926,50.6,12.885l0,0a.44.44,0,0,1-.194-.572.415.415,0,0,1,.38-.248v0h4.84V10.3h-4.84v0a2.122,2.122,0,0,0-1.928,1.264,2.225,2.225,0,0,0,1.02,2.911l4.241,2.042h0a.438.438,0,0,1,.2.577.42.42,0,0,1-.382.25v0H48.987v1.758h4.957v0a2.121,2.121,0,0,0,1.926-1.266A2.217,2.217,0,0,0,54.842,14.926Z" transform="translate(1237.188 2578.004)"/></g></svg>