<svg xmlns="http://www.w3.org/2000/svg" width="96.744" height="25.576" viewBox="0 0 96.744 25.576"><defs><style>.a{fill:#ee1d52;}.b{fill:#69c9d0;}.c{fill:none;}</style></defs><g transform="translate(-985 -2579)"><g transform="translate(985 2579)"><g transform="translate(0.876 1.029)"><path class="a" d="M196,111.467l.084.237C196.073,111.677,196.042,111.594,196,111.467Zm3.32-5.368a3.569,3.569,0,0,1,4.625-3.146v-3.32a6.949,6.949,0,0,1,1.225.076v4.273a3.57,3.57,0,0,0-4.624,3.146,3.938,3.938,0,0,0,.692,2.376q-.212-.114-.433-.259A3.636,3.636,0,0,1,199.32,106.1Zm12.807-12.6a5.856,5.856,0,0,1-1.406-2.885h1.167a5.447,5.447,0,0,0,1.464,3.914l.024.026A6.791,6.791,0,0,1,212.127,93.495Zm5.624,3.008v4.187a14.512,14.512,0,0,1-2.592-.353A9.9,9.9,0,0,1,212.63,99.3s-.683-.448-.739-.479v8.646a8.7,8.7,0,0,1-.512,2.686,8.138,8.138,0,0,1-1.422,2.349,8.041,8.041,0,0,1-2.609,1.948,7.735,7.735,0,0,1-3.213.707,7.931,7.931,0,0,1-4.328-1.3,8.678,8.678,0,0,1-1.236-1.036l.01.008a7.932,7.932,0,0,0,4.328,1.3,7.732,7.732,0,0,0,3.213-.707,7.837,7.837,0,0,0,4.031-4.3,8.73,8.73,0,0,0,.512-2.686V97.792c.055.032.738.479.738.479a9.889,9.889,0,0,0,2.529,1.037,14.517,14.517,0,0,0,2.592.354V96.381A3.964,3.964,0,0,0,217.751,96.5Z" transform="translate(-196 -90.61)"/></g><path d="M222.945,96.381v3.28a14.517,14.517,0,0,1-2.592-.353,9.911,9.911,0,0,1-2.529-1.037s-.683-.448-.738-.479v8.647a8.7,8.7,0,0,1-.512,2.686,8.137,8.137,0,0,1-1.422,2.349,8.048,8.048,0,0,1-2.609,1.948,7.732,7.732,0,0,1-3.213.707,7.932,7.932,0,0,1-4.328-1.3l-.01-.008a8.058,8.058,0,0,1-.61-.692,8.312,8.312,0,0,1-1.156-2.1.013.013,0,0,1,0,0,8.458,8.458,0,0,1-.456-2.8,7.687,7.687,0,0,1,.936-3.54,8.331,8.331,0,0,1,1.818-2.221,7.59,7.59,0,0,1,2.16-1.279,7.245,7.245,0,0,1,2.681-.563v3.32a3.56,3.56,0,0,0-3.141,6.292q.221.146.433.259a3.369,3.369,0,0,0,.793.77,3.463,3.463,0,0,0,3.581.342,3.371,3.371,0,0,0,1.848-2.03,4.929,4.929,0,0,0,.19-1.677V90.61h3.069a5.856,5.856,0,0,0,1.406,2.885,6.791,6.791,0,0,0,1.249,1.055,6.55,6.55,0,0,0,1.712,1.309,6.682,6.682,0,0,0,1.44.522Z" transform="translate(-201.543 -89.581)"/><path class="b" d="M185.012,248.572a7.59,7.59,0,0,0-2.16,1.279,8.33,8.33,0,0,0-1.817,2.225,7.682,7.682,0,0,0-.936,3.54,8.458,8.458,0,0,0,.456,2.8.013.013,0,0,0,0,0,8.453,8.453,0,0,0,1.156,2.1,8.061,8.061,0,0,0,.61.692,8.525,8.525,0,0,1-1.836-1.721,8.335,8.335,0,0,1-1.153-2.087.051.051,0,0,1,0-.006v0a8.416,8.416,0,0,1-.457-2.8,7.687,7.687,0,0,1,.936-3.54,8.322,8.322,0,0,1,1.817-2.225,7.578,7.578,0,0,1,2.16-1.279,7.4,7.4,0,0,1,1.523-.448,7.571,7.571,0,0,1,2.382-.035v.946A7.244,7.244,0,0,0,185.012,248.572Z" transform="translate(-178.872 -237.956)"/><path class="b" d="M307.864,71.519h-3.069v16.3a5,5,0,0,1-.19,1.677,3.382,3.382,0,0,1-1.848,2.029,3.458,3.458,0,0,1-3.581-.342,3.369,3.369,0,0,1-.795-.767,3.542,3.542,0,0,0,5-1.947,4.916,4.916,0,0,0,.191-1.677V70.49h4.238A4,4,0,0,0,307.864,71.519Zm5.8,4.864v.907a6.682,6.682,0,0,1-1.437-.522,6.55,6.55,0,0,1-1.712-1.309,4.79,4.79,0,0,0,.487.28A5.506,5.506,0,0,0,313.668,76.383Z" transform="translate(-292.266 -70.49)"/></g><path class="c" d="M485.972,695.463a2.782,2.782,0,0,1-.122-.823v-.02A3,3,0,0,0,485.972,695.463Zm6.065-.843v.02a2.822,2.822,0,0,1-.122.823A3.046,3.046,0,0,0,492.037,694.62Z" transform="translate(572.082 1900.244)"/><path class="b" d="M456.139,649.833a2.782,2.782,0,0,0,.122.823.32.32,0,0,0,.017.055,3.092,3.092,0,0,0,2.955,2.177v3.13a7.03,7.03,0,0,1-4.281-.928,6.128,6.128,0,0,1-2.952-5.3,6.194,6.194,0,0,1,3.21-5.451,7.6,7.6,0,0,1,4.026-.773V646.7a3.1,3.1,0,0,0-3.1,3.1Z" transform="translate(601.793 1945.051)"/><path class="a" d="M514.434,649.833a2.822,2.822,0,0,1-.122.823.191.191,0,0,1-.017.055,3.094,3.094,0,0,1-2.955,2.177v3.13a7.005,7.005,0,0,0,4.275-.928,6.123,6.123,0,0,0,2.961-5.3,6.194,6.194,0,0,0-3.21-5.451,7.6,7.6,0,0,0-4.025-.773V646.7a3.1,3.1,0,0,1,3.094,3.1Z" transform="translate(549.711 1945.051)"/><path d="M119.51,620.36h11.461l-1.059,3.153h-3v12.068h-3.685V623.513H119.51Zm30.374,0v3.153H153.6v12.068h3.69V623.513h3l1.059-3.153Zm-16.419,3.593a1.784,1.784,0,1,0-1.263-.522A1.786,1.786,0,0,0,133.465,623.953Zm-1.787,11.627H135.3V625.215h-3.618Zm16.633-11.718h-4.232l-3.647,3.647v-7.138h-3.594l-.011,15.208h3.629v-3.963l1.129-1.029,3.522,4.986h3.879l-5.1-7.292Zm34.706,4.424,4.424-4.424h-4.23l-3.648,3.647v-7.138h-3.593l-.017,15.208h3.63v-3.963l1.14-1.029,3.522,4.986h3.881Zm-9.3,1.134a6.308,6.308,0,1,1-6.307-6.224,6.267,6.267,0,0,1,6.307,6.224Zm-3.213,0a3.094,3.094,0,1,0-3.094,3.094,3.094,3.094,0,0,0,3.094-3.094Z" transform="translate(893.619 1965.422)"/></g></svg>