<svg xmlns="http://www.w3.org/2000/svg" width="127.159" height="28.171" viewBox="0 0 127.159 28.171"><defs><style>.a{fill:#3c8bd9;}.b{fill:#fabc04;}.c{fill:#34a852;}.d{fill:#757575;}</style></defs><g transform="translate(-360 -2578)"><path class="a" d="M10.029,3.551a5.607,5.607,0,0,1,1.266-2.086,4.852,4.852,0,0,1,7.8,1.2c1.194,2.26,2.46,4.47,3.689,6.705,2.054,3.713,4.131,7.425,6.161,11.15a5.158,5.158,0,0,1-3.534,7.587,4.89,4.89,0,0,1-5.1-2.608q-2.7-4.9-5.421-9.784a1.127,1.127,0,0,0-.131-.2,2.026,2.026,0,0,1-.394-.608c-.8-1.465-1.624-2.918-2.424-4.371-.513-.944-1.051-1.875-1.564-2.819a5.3,5.3,0,0,1-.657-2.732A3.935,3.935,0,0,1,10.029,3.551Z" transform="translate(360.061 2577.996)"/><path class="b" d="M10.083,3.529A7.4,7.4,0,0,0,9.856,4.9a5.532,5.532,0,0,0,.716,2.918q1.97,3.52,3.928,7.065c.119.211.215.422.334.621-.716,1.291-1.433,2.57-2.161,3.862-1,1.8-2.006,3.613-3.021,5.414-.048,0-.06-.025-.072-.062a.8.8,0,0,1,.048-.286A5.14,5.14,0,0,0,8.483,19.5a4.5,4.5,0,0,0-2.806-1.5A4.714,4.714,0,0,0,1.844,19.1c-.2.161-.334.4-.573.521a.08.08,0,0,1-.084-.062c.573-1.031,1.134-2.061,1.707-3.092q3.546-6.407,7.1-12.8C10.023,3.616,10.059,3.579,10.083,3.529Z" transform="translate(360.008 2578.018)"/><path class="c" d="M1.241,19.508c.227-.211.442-.435.681-.633a4.888,4.888,0,0,1,7.892,3.117,5.666,5.666,0,0,1-.191,2.645,1.345,1.345,0,0,1-.048.211c-.107.2-.2.41-.322.608a4.758,4.758,0,0,1-4.68,2.6A4.988,4.988,0,0,1,.047,23.606,5.132,5.132,0,0,1,.7,20.3c.119-.223.263-.422.394-.646C1.158,19.608,1.134,19.508,1.241,19.508Z" transform="translate(360 2578.106)"/><path class="d" d="M40.632,10.144a7.857,7.857,0,0,0,0,15.712,6.772,6.772,0,0,0,5.29-2.21,7.192,7.192,0,0,0,1.8-5,8.156,8.156,0,0,0-.116-1.369H40.632v2.138H45.6a4.671,4.671,0,0,1-1.109,2.715,5.036,5.036,0,0,1-3.835,1.586A5.566,5.566,0,0,1,35.2,18.024a5.551,5.551,0,0,1,5.452-5.694A5.019,5.019,0,0,1,44.4,13.892l1.455-1.514A7.09,7.09,0,0,0,40.632,10.144Zm12.66,5.646a4.909,4.909,0,0,0-4.852,5.117,4.858,4.858,0,1,0,9.7,0A4.924,4.924,0,0,0,53.292,15.789Zm0,8.216a2.892,2.892,0,0,1-2.726-3.1,2.749,2.749,0,1,1,5.452,0A2.892,2.892,0,0,1,53.292,24.006Zm10.535-8.216a4.9,4.9,0,0,0-4.852,5.117,4.858,4.858,0,1,0,9.7,0A4.91,4.91,0,0,0,63.827,15.789Zm0,8.216a2.892,2.892,0,0,1-2.726-3.1,2.749,2.749,0,1,1,5.452,0A2.877,2.877,0,0,1,63.827,24.006Zm10.488-8.216a4.913,4.913,0,0,0-4.62,5.093,4.9,4.9,0,0,0,4.62,5.045,3.279,3.279,0,0,0,2.541-1.153h.069v.745c0,1.946-.97,2.979-2.564,2.979a2.666,2.666,0,0,1-2.426-1.778l-1.871.817a4.578,4.578,0,0,0,4.3,2.979c2.5,0,4.6-1.562,4.6-5.285V16.15h-2.01v.817h-.069A3.23,3.23,0,0,0,74.315,15.789Zm.185,8.144a2.85,2.85,0,0,1-2.68-3.075,2.887,2.887,0,0,1,2.68-3.1c1.455,0,2.564,1.321,2.564,3.1C77.064,22.66,75.955,23.934,74.5,23.934Zm6.007-13.166h2.125V25.76H80.506Zm7.832,5.021a4.792,4.792,0,0,0-4.667,5.117,4.906,4.906,0,0,0,4.9,5.117,4.853,4.853,0,0,0,4.112-2.258l-1.686-1.153a2.761,2.761,0,0,1-2.426,1.393,2.432,2.432,0,0,1-2.38-1.562L92.8,19.609l-.231-.576A4.694,4.694,0,0,0,88.338,15.789ZM85.8,20.738a2.77,2.77,0,0,1,2.564-2.979,1.869,1.869,0,0,1,1.825,1.081Z" transform="translate(360.633 2574.43)"/><path class="d" d="M65.584,24.666,70.5,11.045H72.4L77.32,24.666H75.448l-1.271-3.676H68.7l-1.271,3.676Zm3.7-5.309h4.366l-2.125-6.126h-.069Z" transform="translate(391.564 2575.282)"/><path class="d" d="M73.1,23.537a5.192,5.192,0,0,1-1.225-3.532A5.444,5.444,0,0,1,73.1,16.474a3.873,3.873,0,0,1,3.026-1.441,3.716,3.716,0,0,1,1.8.432A3.192,3.192,0,0,1,79.2,16.618h.069L79.2,15.345v-4.3h1.686V24.666H79.289V23.393H79.22a3.374,3.374,0,0,1-1.271,1.153,3.579,3.579,0,0,1-1.8.433A3.781,3.781,0,0,1,73.1,23.537Zm5.313-1.081a3.554,3.554,0,0,0,.832-2.45,3.4,3.4,0,0,0-.832-2.4,2.527,2.527,0,0,0-2.01-.937,2.464,2.464,0,0,0-2.01.937,3.512,3.512,0,0,0-.832,2.4,3.4,3.4,0,0,0,.832,2.4,2.593,2.593,0,0,0,2.01.937A2.349,2.349,0,0,0,78.411,22.456Z" transform="translate(397.52 2575.282)"/><path class="d" d="M83.589,22.2a4.2,4.2,0,0,1-4.944.12,4.164,4.164,0,0,1-1.455-1.946l1.5-.649a2.945,2.945,0,0,0,.97,1.321,2.29,2.29,0,0,0,1.386.457,2.388,2.388,0,0,0,1.34-.36,1.032,1.032,0,0,0,.531-.865c0-.577-.439-1.057-1.317-1.321l-1.525-.384c-1.756-.457-2.611-1.322-2.611-2.643a2.529,2.529,0,0,1,1.016-2.066,4.127,4.127,0,0,1,2.541-.769,4.269,4.269,0,0,1,2.172.577,3.255,3.255,0,0,1,1.34,1.586l-1.5.649a2.13,2.13,0,0,0-.832-.937,2.417,2.417,0,0,0-1.317-.36,2.144,2.144,0,0,0-1.2.36,1.023,1.023,0,0,0-.531.865c0,.553.485.937,1.455,1.129l1.34.36c1.8.456,2.657,1.393,2.657,2.787A2.543,2.543,0,0,1,83.589,22.2Z" transform="translate(402.553 2577.222)"/></g></svg>