<svg xmlns="http://www.w3.org/2000/svg" xmlns:xlink="http://www.w3.org/1999/xlink" width="171.924" height="25.355" viewBox="0 0 171.924 25.355"><defs><style>.a{fill:#616161;}.b{fill:#369647;}.c{fill:#aeea00;}.d,.e{opacity:0.15;}.d{fill:url(#a);}.e{fill:url(#b);}.f{opacity:0.4;fill:url(#c);}.g{opacity:0.25;fill:url(#d);}.h{fill:#aaa;}</style><linearGradient id="a" x1="0.195" y1="-2.36" x2="0.195" y2="-2.914" gradientUnits="objectBoundingBox"><stop offset="0" stop-opacity="0.6"/><stop offset="0.6" stop-opacity="0.102"/></linearGradient><linearGradient id="b" x1="0.083" y1="-2.909" x2="0.083" y2="-2.356" xlink:href="#a"/><linearGradient id="c" x1="-0.339" y1="-6.486" x2="-0.087" y2="-7.101" gradientUnits="objectBoundingBox"><stop offset="0" stop-opacity="0.502"/><stop offset="0.75" stop-opacity="0.031"/></linearGradient><linearGradient id="d" x1="-0.49" y1="-11.297" x2="0.237" y2="-11.297" gradientUnits="objectBoundingBox"><stop offset="0" stop-opacity="0.898"/><stop offset="0.6" stop-opacity="0.102"/></linearGradient></defs><g transform="translate(-524 -2579)"><path class="a" d="M215.019,678.969V664.511h4.034a6.406,6.406,0,0,1,2.47.471,5.456,5.456,0,0,1,1.961,1.32,6.11,6.11,0,0,1,1.282,2.074,7.668,7.668,0,0,1,.434,2.715v1.32a7.813,7.813,0,0,1-.434,2.715,6.418,6.418,0,0,1-1.282,2.074,5.378,5.378,0,0,1-1.961,1.32,6.946,6.946,0,0,1-2.545.471H215v-.019Zm1.225-13.4v12.385H219a5.211,5.211,0,0,0,2.111-.415,5,5,0,0,0,1.6-1.112,5.264,5.264,0,0,0,1.018-1.772,6.591,6.591,0,0,0,.339-2.243v-1.357a6.652,6.652,0,0,0-.377-2.281,5.084,5.084,0,0,0-1.018-1.734,4.467,4.467,0,0,0-1.565-1.112,5.033,5.033,0,0,0-2.036-.415h-2.809v.057h-.019Zm10.425,7.88a6.3,6.3,0,0,1,.339-2.168,5.388,5.388,0,0,1,.98-1.734,4.322,4.322,0,0,1,1.527-1.112,4.8,4.8,0,0,1,1.961-.415,4.567,4.567,0,0,1,2,.415A4.688,4.688,0,0,1,235,669.544a4.414,4.414,0,0,1,.943,1.734,6.3,6.3,0,0,1,.339,2.168v.339a6.3,6.3,0,0,1-.339,2.168,6.117,6.117,0,0,1-.943,1.734,4.321,4.321,0,0,1-1.527,1.112,4.8,4.8,0,0,1-1.961.415,4.458,4.458,0,0,1-1.961-.415,4.687,4.687,0,0,1-1.527-1.112,5.015,5.015,0,0,1-.98-1.734,6.3,6.3,0,0,1-.339-2.168v-.339Zm1.188.339a5.684,5.684,0,0,0,.245,1.7,4.643,4.643,0,0,0,.716,1.395,3.134,3.134,0,0,0,1.112.943,3.2,3.2,0,0,0,1.565.377,3.309,3.309,0,0,0,1.565-.377,3.573,3.573,0,0,0,1.112-.943,5.138,5.138,0,0,0,.716-1.395,5.6,5.6,0,0,0,.245-1.7v-.339a5.44,5.44,0,0,0-.245-1.659,4.235,4.235,0,0,0-.716-1.4,3.427,3.427,0,0,0-1.15-.98,3.2,3.2,0,0,0-1.565-.377,3.056,3.056,0,0,0-1.527.377,3.694,3.694,0,0,0-1.112.98,5.139,5.139,0,0,0-.716,1.4,5.527,5.527,0,0,0-.245,1.659Zm17.173,3.827a3.389,3.389,0,0,1-1.357,1.15,4.957,4.957,0,0,1-2.074.415,3.742,3.742,0,0,1-1.433-.245,2.419,2.419,0,0,1-1.112-.716,3.572,3.572,0,0,1-.716-1.263,6.055,6.055,0,0,1-.245-1.866v-6.881h1.188v6.918a4.348,4.348,0,0,0,.207,1.433,2.362,2.362,0,0,0,.547.924,1.846,1.846,0,0,0,.773.509,3.081,3.081,0,0,0,.943.132,5.115,5.115,0,0,0,1.263-.17,3.114,3.114,0,0,0,.943-.434,2.726,2.726,0,0,0,.641-.679,4.424,4.424,0,0,0,.415-.848v-7.767H246.2v10.764h-1.15Zm12.442-3.9a8.733,8.733,0,0,1-.264,2.206,4.476,4.476,0,0,1-.811,1.734,3.635,3.635,0,0,1-1.282,1.112,3.74,3.74,0,0,1-1.734.415,4.376,4.376,0,0,1-2.036-.434,3.982,3.982,0,0,1-1.395-1.225l-.038,1.452h-1.093V663.7h1.188v6.07a4,4,0,0,1,1.357-1.282,4.416,4.416,0,0,1,3.77-.094,3.3,3.3,0,0,1,1.282,1.112,5.915,5.915,0,0,1,.811,1.734,9.361,9.361,0,0,1,.264,2.281v.207h-.019Zm-1.188-.207a10.659,10.659,0,0,0-.17-1.772,4.243,4.243,0,0,0-.584-1.433,2.753,2.753,0,0,0-.98-.943,2.877,2.877,0,0,0-1.433-.339,4.508,4.508,0,0,0-1.188.17,3.045,3.045,0,0,0-.886.471,2.913,2.913,0,0,0-.641.716,5.5,5.5,0,0,0-.415.811v4.845a4.5,4.5,0,0,0,.471.811,3.119,3.119,0,0,0,.679.641,3.233,3.233,0,0,0,.886.434,4.165,4.165,0,0,0,1.112.17,2.514,2.514,0,0,0,1.395-.339,2.931,2.931,0,0,0,.98-.943,5.442,5.442,0,0,0,.584-1.395,7.445,7.445,0,0,0,.17-1.772Zm4.449,5.467h-1.188V663.7h1.188Zm6.956.207a4.375,4.375,0,0,1-1.942-.415,4.634,4.634,0,0,1-1.527-1.093,4.722,4.722,0,0,1-.98-1.659,5.918,5.918,0,0,1-.377-2.111v-.434a6.433,6.433,0,0,1,.377-2.243,5.084,5.084,0,0,1,1.018-1.734,4.47,4.47,0,0,1,1.452-1.093,4.047,4.047,0,0,1,1.772-.377,4.4,4.4,0,0,1,1.829.377,3.406,3.406,0,0,1,1.32,1.018,4.4,4.4,0,0,1,.811,1.565,7.246,7.246,0,0,1,.264,1.961v.716h-7.672v.245a5.273,5.273,0,0,0,.264,1.659,4.136,4.136,0,0,0,.754,1.357,4.509,4.509,0,0,0,1.15.924,2.992,2.992,0,0,0,1.489.339,3.794,3.794,0,0,0,1.7-.339,4,4,0,0,0,1.32-1.112l.754.584a5.566,5.566,0,0,1-.6.754,3.627,3.627,0,0,1-.811.6,5.353,5.353,0,0,1-1.056.415A8.961,8.961,0,0,1,267.689,679.177Zm-.226-10.142a3.157,3.157,0,0,0-1.263.264,2.983,2.983,0,0,0-1.018.754,3.4,3.4,0,0,0-.716,1.15,5.075,5.075,0,0,0-.377,1.489h6.447v-.132a5.342,5.342,0,0,0-.207-1.32,3.917,3.917,0,0,0-.584-1.112,2.84,2.84,0,0,0-.943-.773A2.607,2.607,0,0,0,267.463,669.035Zm16.8,5.429a5.979,5.979,0,0,1-.509,1.961,4.275,4.275,0,0,1-1.056,1.489,4.215,4.215,0,0,1-1.6.924,6.555,6.555,0,0,1-2.13.339,5.492,5.492,0,0,1-2.243-.471,4.78,4.78,0,0,1-1.734-1.32,6.421,6.421,0,0,1-1.112-2.074,8.51,8.51,0,0,1-.377-2.639v-1.829a9.184,9.184,0,0,1,.377-2.677,5.773,5.773,0,0,1,1.112-2.074,4.58,4.58,0,0,1,1.734-1.32,5.63,5.63,0,0,1,2.3-.471,6.48,6.48,0,0,1,2.074.3,4.519,4.519,0,0,1,1.6.924,5.321,5.321,0,0,1,1.056,1.489,6.478,6.478,0,0,1,.509,2h-1.225a5.432,5.432,0,0,0-.415-1.565,3.169,3.169,0,0,0-.773-1.15,3.571,3.571,0,0,0-1.188-.716,4.8,4.8,0,0,0-1.621-.245,3.644,3.644,0,0,0-1.791.415,3.881,3.881,0,0,0-1.357,1.112,5.137,5.137,0,0,0-.848,1.734,7.688,7.688,0,0,0-.3,2.243v1.829a9.184,9.184,0,0,0,.264,2.206,4.477,4.477,0,0,0,.811,1.734,4.247,4.247,0,0,0,1.32,1.15,3.862,3.862,0,0,0,1.791.415,3.989,3.989,0,0,0,2.884-.924A4.3,4.3,0,0,0,283,674.5h1.263v-.038Zm3.487,4.505h-1.188V663.7h1.188Zm2.922-13.837a.884.884,0,0,1,.207-.584.719.719,0,0,1,.6-.245.769.769,0,0,1,.6.245.915.915,0,0,1,.245.584.756.756,0,0,1-.245.584.849.849,0,0,1-.6.245.769.769,0,0,1-.6-.245A.925.925,0,0,1,290.669,665.133Zm1.395,13.837h-1.188V668.205h1.188Zm6.617-.811a4.143,4.143,0,0,0,1.093-.17,2.859,2.859,0,0,0,.924-.471,2.676,2.676,0,0,0,.679-.773,2.749,2.749,0,0,0,.3-1.093h1.15a4.134,4.134,0,0,1-.377,1.433,3.783,3.783,0,0,1-.924,1.112,5.735,5.735,0,0,1-1.282.754,4.7,4.7,0,0,1-1.565.264,4.454,4.454,0,0,1-2-.415,3.566,3.566,0,0,1-1.433-1.15,5.373,5.373,0,0,1-.886-1.7,6.888,6.888,0,0,1-.3-2.111v-.415a6.974,6.974,0,0,1,.3-2.111,4.7,4.7,0,0,1,.886-1.7,4.339,4.339,0,0,1,1.433-1.15,4.674,4.674,0,0,1,1.961-.415,4.84,4.84,0,0,1,1.6.264,3.388,3.388,0,0,1,1.282.773,4.171,4.171,0,0,1,.886,1.225,4.758,4.758,0,0,1,.377,1.6h-1.15a4.748,4.748,0,0,0-.264-1.188,3.054,3.054,0,0,0-.641-.886,3.182,3.182,0,0,0-.943-.584,3.278,3.278,0,0,0-1.15-.207,3.1,3.1,0,0,0-1.565.377,3.645,3.645,0,0,0-1.056.943,4.376,4.376,0,0,0-.584,1.395,6.674,6.674,0,0,0-.17,1.621v.415a9.515,9.515,0,0,0,.17,1.659,3.432,3.432,0,0,0,.584,1.4,2.558,2.558,0,0,0,1.056.943A2.97,2.97,0,0,0,298.68,678.159Zm8.653-4.581-1.357,1.32v4.11h-1.188v-15.27h1.188V673.5l1.112-1.225,4.11-4.034h1.489l-4.543,4.562,4.958,6.2h-1.433Z" transform="translate(350.85 1919.918)"/><path class="b" d="M39.43,639.2a11.637,11.637,0,0,0-3.148.415,12.667,12.667,0,0,1,9.5,12.008v.49a6.383,6.383,0,0,1-6.353,6.108,6.1,6.1,0,0,1-3.148-.848,6.3,6.3,0,0,1-3.167-5.5,6.408,6.408,0,0,1,3.148-5.5,6.147,6.147,0,0,0-3.148-.848,6.311,6.311,0,0,0-6.315,6.108v.49A12.651,12.651,0,1,0,39.43,639.2Z" transform="translate(503.572 1939.8)"/><path class="c" d="M18.317,651.623a12.6,12.6,0,0,0-9.5-12.008,12.542,12.542,0,0,0-3.148-.415,12.659,12.659,0,1,0-.019,25.317A11.637,11.637,0,0,0,8.8,664.1,12.642,12.642,0,0,1-.666,652.094v-.49A6.349,6.349,0,0,1,5.649,645.5a6.1,6.1,0,0,1,3.148.848,6.282,6.282,0,0,1,3.148,5.5,6.408,6.408,0,0,1-3.148,5.5,6.746,6.746,0,0,0,3.186.848,6.311,6.311,0,0,0,6.315-6.108v-.245A.845.845,0,0,0,18.317,651.623Z" transform="translate(531 1939.8)"/><path class="d" d="M18.317,651.623a12.6,12.6,0,0,0-9.5-12.008,12.542,12.542,0,0,0-3.148-.415,12.659,12.659,0,1,0-.019,25.317A11.637,11.637,0,0,0,8.8,664.1,12.642,12.642,0,0,1-.666,652.094v-.49A6.349,6.349,0,0,1,5.649,645.5a6.1,6.1,0,0,1,3.148.848,6.282,6.282,0,0,1,3.148,5.5,6.408,6.408,0,0,1-3.148,5.5,6.746,6.746,0,0,0,3.186.848,6.311,6.311,0,0,0,6.315-6.108v-.245A.845.845,0,0,0,18.317,651.623Z" transform="translate(531 1939.8)"/><path class="e" d="M39.43,639.2a11.637,11.637,0,0,0-3.148.415,12.667,12.667,0,0,1,9.5,12.008v.49a6.383,6.383,0,0,1-6.353,6.108,6.1,6.1,0,0,1-3.148-.848,6.3,6.3,0,0,1-3.167-5.5,6.408,6.408,0,0,1,3.148-5.5,6.147,6.147,0,0,0-3.148-.848,6.311,6.311,0,0,0-6.315,6.108v.49A12.651,12.651,0,1,0,39.43,639.2Z" transform="translate(503.572 1939.8)"/><path class="f" d="M36.163,719.546A12.642,12.642,0,0,1,26.7,707.538v.057a18.414,18.414,0,0,0,4.581,12.253,13.42,13.42,0,0,0,1.734.132A14.245,14.245,0,0,0,36.163,719.546Z" transform="translate(503.652 1884.375)"/><path class="g" d="M26.83,679.008a6.275,6.275,0,0,1,7.71-4.242,2.278,2.278,0,0,0,.339.094,6.582,6.582,0,0,1,1.395-1.112,6.148,6.148,0,0,0-3.148-.848,6.282,6.282,0,0,0-6.3,6.108l-.019.207A.2.2,0,0,1,26.83,679.008Z" transform="translate(503.578 1912.453)"/><g transform="translate(669.061 2594.175)"><path class="h" d="M765.328,722.792a2.567,2.567,0,0,1-.094.679,1.953,1.953,0,0,1-.245.528,1.271,1.271,0,0,1-.415.358,1.232,1.232,0,0,1-.547.132,1.26,1.26,0,0,1-.566-.113,1.179,1.179,0,0,1-.415-.339l-.019.377H762.5V719.7h.566v1.753a1.291,1.291,0,0,1,.4-.32,1.231,1.231,0,0,1,.547-.113,1.023,1.023,0,0,1,.547.132.872.872,0,0,1,.4.339,1.516,1.516,0,0,1,.245.528,2.6,2.6,0,0,1,.094.7v.075Zm-.566-.057a3.682,3.682,0,0,0-.038-.471.988.988,0,0,0-.151-.377.709.709,0,0,0-.264-.264.9.9,0,0,0-.415-.094,1.14,1.14,0,0,0-.283.038.637.637,0,0,0-.226.113.486.486,0,0,0-.17.17.776.776,0,0,0-.132.207v1.433a.777.777,0,0,0,.132.207l.17.17a1.267,1.267,0,0,0,.226.113,1.143,1.143,0,0,0,.283.038.876.876,0,0,0,.4-.094.709.709,0,0,0,.264-.264,1.315,1.315,0,0,0,.151-.377,1.9,1.9,0,0,0,.057-.471Zm2.281.848.773-2.488h.6l-1.338,3.846c-.038.075-.075.17-.113.264a1.342,1.342,0,0,1-.189.264,1.1,1.1,0,0,1-.283.207.874.874,0,0,1-.4.075h-.075a.17.17,0,0,1-.094-.019c-.038,0-.057-.019-.094-.019-.019,0-.038-.019-.057-.019v-.452h.151a1.158,1.158,0,0,0,.264-.019.589.589,0,0,0,.189-.094.445.445,0,0,0,.151-.17,1.833,1.833,0,0,0,.113-.264l.132-.339-1.188-3.28h.622Zm6.843.245a1.371,1.371,0,0,1-.17.207.943.943,0,0,1-.3.207q-.2.085-.452.17a3.151,3.151,0,0,1-.641.075,1.993,1.993,0,0,1-.754-.151,1.442,1.442,0,0,1-.584-.415,1.636,1.636,0,0,1-.377-.66,2.689,2.689,0,0,1-.132-.9V722a3.068,3.068,0,0,1,.113-.886,1.683,1.683,0,0,1,.339-.66,1.382,1.382,0,0,1,.566-.415,1.947,1.947,0,0,1,.773-.151,2.457,2.457,0,0,1,.679.094,1.76,1.76,0,0,1,.49.283,1.239,1.239,0,0,1,.32.434,2.633,2.633,0,0,1,.17.547h-.584a1.2,1.2,0,0,0-.113-.339.786.786,0,0,0-.207-.283,1.013,1.013,0,0,0-.3-.189,1.486,1.486,0,0,0-.434-.075,1.231,1.231,0,0,0-.547.113,1.038,1.038,0,0,0-.377.32,1.807,1.807,0,0,0-.226.509,2.581,2.581,0,0,0-.075.679v.358a2.6,2.6,0,0,0,.094.7,1.324,1.324,0,0,0,.66.829,1.2,1.2,0,0,0,.528.113,2.6,2.6,0,0,0,.415-.038,2.9,2.9,0,0,0,.283-.075,1.651,1.651,0,0,0,.188-.113.32.32,0,0,0,.113-.113v-1H772.3v-.471h1.621v1.659Zm.528-1.112a1.971,1.971,0,0,1,.113-.679,1.61,1.61,0,0,1,.3-.528,1.49,1.49,0,0,1,.471-.358,1.366,1.366,0,0,1,.622-.132,1.393,1.393,0,0,1,.641.132,1.488,1.488,0,0,1,.471.358,1.829,1.829,0,0,1,.3.528,1.972,1.972,0,0,1,.113.679v.075a1.973,1.973,0,0,1-.113.679,1.611,1.611,0,0,1-.3.528,1.488,1.488,0,0,1-.471.358,1.365,1.365,0,0,1-.622.132,1.314,1.314,0,0,1-.622-.132,1.734,1.734,0,0,1-.471-.358,1.61,1.61,0,0,1-.3-.528,1.971,1.971,0,0,1-.113-.679v-.075h-.019Zm.566.075a1.9,1.9,0,0,0,.057.471,1.256,1.256,0,0,0,.17.4.686.686,0,0,0,.3.264.96.96,0,0,0,.829,0,.808.808,0,0,0,.3-.264,1.258,1.258,0,0,0,.17-.4,1.9,1.9,0,0,0,.057-.471v-.075a1.9,1.9,0,0,0-.057-.471,1.258,1.258,0,0,0-.17-.4.686.686,0,0,0-.3-.264.751.751,0,0,0-.415-.094,1.027,1.027,0,0,0-.415.094,1.319,1.319,0,0,0-.3.264,1.256,1.256,0,0,0-.17.4,1.9,1.9,0,0,0-.057.471Zm3.016-.075a1.972,1.972,0,0,1,.113-.679,1.609,1.609,0,0,1,.3-.528,1.489,1.489,0,0,1,.471-.358,1.366,1.366,0,0,1,.622-.132,1.447,1.447,0,0,1,.641.132,1.488,1.488,0,0,1,.471.358,1.828,1.828,0,0,1,.3.528,1.971,1.971,0,0,1,.113.679v.075a1.971,1.971,0,0,1-.113.679,1.61,1.61,0,0,1-.3.528,1.488,1.488,0,0,1-.471.358,1.365,1.365,0,0,1-.622.132,1.314,1.314,0,0,1-.622-.132,1.488,1.488,0,0,1-.471-.358,1.61,1.61,0,0,1-.3-.528,1.971,1.971,0,0,1-.113-.679v-.075Zm.565.075a1.9,1.9,0,0,0,.057.471,1.256,1.256,0,0,0,.17.4.686.686,0,0,0,.3.264.96.96,0,0,0,.829,0,.807.807,0,0,0,.3-.264,1.258,1.258,0,0,0,.17-.4,1.9,1.9,0,0,0,.057-.471v-.075a1.9,1.9,0,0,0-.057-.471,1.258,1.258,0,0,0-.17-.4.686.686,0,0,0-.3-.264.751.751,0,0,0-.415-.094,1.027,1.027,0,0,0-.415.094,1.319,1.319,0,0,0-.3.264,1.256,1.256,0,0,0-.17.4,1.9,1.9,0,0,0-.057.471Zm3.016-.057a2.71,2.71,0,0,1,.094-.7,1.542,1.542,0,0,1,.264-.528,1.033,1.033,0,0,1,.415-.339,1.3,1.3,0,0,1,.547-.132,1.231,1.231,0,0,1,.547.113,1.29,1.29,0,0,1,.4.32l.019-.377h.528v3.261a1.807,1.807,0,0,1-.094.584,1.44,1.44,0,0,1-.283.434,1.362,1.362,0,0,1-.452.264,1.777,1.777,0,0,1-.566.094,1.879,1.879,0,0,1-.3-.038,2.285,2.285,0,0,1-.339-.094,1.05,1.05,0,0,1-.32-.17.947.947,0,0,1-.264-.283l.3-.339a2.136,2.136,0,0,0,.207.207,1.412,1.412,0,0,0,.226.132,1.067,1.067,0,0,0,.226.075.917.917,0,0,0,.226.019,1.1,1.1,0,0,0,.358-.057.68.68,0,0,0,.452-.452,1.215,1.215,0,0,0,.057-.377v-.283a.963.963,0,0,1-.4.283,1.2,1.2,0,0,1-.528.094,1.068,1.068,0,0,1-.547-.132,1.081,1.081,0,0,1-.415-.358,1.542,1.542,0,0,1-.264-.528A2.6,2.6,0,0,1,781.577,722.735Zm.565.057a1.9,1.9,0,0,0,.057.471,1.424,1.424,0,0,0,.151.377,1.166,1.166,0,0,0,.264.264.876.876,0,0,0,.4.094,1.112,1.112,0,0,0,.264-.038,1.155,1.155,0,0,0,.226-.094,1.223,1.223,0,0,0,.17-.151,1.148,1.148,0,0,0,.132-.189v-1.508a.678.678,0,0,0-.132-.188,1.22,1.22,0,0,0-.17-.151.7.7,0,0,0-.207-.094,1.112,1.112,0,0,0-.264-.038.876.876,0,0,0-.4.094.755.755,0,0,0-.283.264.934.934,0,0,0-.151.377,1.9,1.9,0,0,0-.057.471Zm3.6,1.621h-.566V719.7h.566Zm2.3.057a1.661,1.661,0,0,1-.622-.113,1.211,1.211,0,0,1-.471-.339,1.4,1.4,0,0,1-.3-.509,1.76,1.76,0,0,1-.113-.641v-.132a2.115,2.115,0,0,1,.113-.716,1.743,1.743,0,0,1,.32-.547,1.211,1.211,0,0,1,.471-.339,1.353,1.353,0,0,1,.547-.113,1.314,1.314,0,0,1,.622.132,1.089,1.089,0,0,1,.434.339,1.592,1.592,0,0,1,.245.509,2.39,2.39,0,0,1,.075.641v.264H787.12a1.608,1.608,0,0,0,.075.434.989.989,0,0,0,.189.339,1.149,1.149,0,0,0,.3.226.959.959,0,0,0,.415.094.853.853,0,0,0,.509-.132,1.157,1.157,0,0,0,.358-.32l.339.264a2.126,2.126,0,0,1-.188.245,1.427,1.427,0,0,1-.264.207,1.853,1.853,0,0,1-.339.151A2.136,2.136,0,0,1,788.043,724.469Zm-.075-2.978a.881.881,0,0,0-.32.057.625.625,0,0,0-.264.189,1.175,1.175,0,0,0-.189.3,1.34,1.34,0,0,0-.094.415h1.659v-.038a.881.881,0,0,0-.057-.32.986.986,0,0,0-.132-.283.656.656,0,0,0-.245-.207.544.544,0,0,0-.358-.113Z" transform="translate(-762.5 -719.7)"/></g></g></svg>